<?xml version="1.0" standalone="yes"?>

<svg version="1.1" viewBox="0.0 0.0 960.0 720.0" fill="none" stroke="none" stroke-linecap="square" stroke-miterlimit="10" xmlns="http://www.w3.org/2000/svg" xmlns:xlink="http://www.w3.org/1999/xlink"><clipPath id="p.0"><path d="m0 0l960.0 0l0 720.0l-960.0 0l0 -720.0z" clip-rule="nonzero"></path></clipPath><g clip-path="url(#p.0)"><path fill="#000000" fill-opacity="0.0" d="m0 0l960.0 0l0 720.0l-960.0 0z" fill-rule="nonzero"></path><path fill="#f6b26b" d="m239.71654 279.46863l0 0c0 -39.556564 32.06691 -71.62349 71.62349 -71.62349l363.3357 0c18.995728 0 37.21344 7.546036 50.645447 20.978043c13.432007 13.432007 20.978027 31.64972 20.978027 50.645447l0 286.4853c0 39.55658 -32.066895 71.623535 -71.623474 71.623535l-363.3357 0c-39.55658 0 -71.62349 -32.066956 -71.62349 -71.623535z" fill-rule="nonzero"></path><path stroke="#000000" stroke-width="2.0" stroke-linejoin="round" stroke-linecap="butt" d="m239.71654 279.46863l0 0c0 -39.556564 32.06691 -71.62349 71.62349 -71.62349l363.3357 0c18.995728 0 37.21344 7.546036 50.645447 20.978043c13.432007 13.432007 20.978027 31.64972 20.978027 50.645447l0 286.4853c0 39.55658 -32.066895 71.623535 -71.623474 71.623535l-363.3357 0c-39.55658 0 -71.62349 -32.066956 -71.62349 -71.623535z" fill-rule="nonzero"></path><path fill="#000000" d="m394.9235 603.5196l0 -13.59375l5.125 0q1.359375 0 2.078125 0.125q1.0 0.171875 1.671875 0.640625q0.671875 0.46875 1.078125 1.3125q0.421875 0.84375 0.421875 1.84375q0 1.734375 -1.109375 2.9375q-1.09375 1.203125 -3.984375 1.203125l-3.484375 0l0 5.53125l-1.796875 0zm1.796875 -7.140625l3.515625 0q1.75 0 2.46875 -0.640625q0.734375 -0.65625 0.734375 -1.828125q0 -0.859375 -0.4375 -1.46875q-0.421875 -0.609375 -1.125 -0.796875q-0.453125 -0.125 -1.671875 -0.125l-3.484375 0l0 4.859375zm10.412323 7.140625l0 -9.859375l1.5 0l0 1.5q0.578125 -1.046875 1.0625 -1.375q0.484375 -0.34375 1.078125 -0.34375q0.84375 0 1.71875 0.546875l-0.578125 1.546875q-0.609375 -0.359375 -1.234375 -0.359375q-0.546875 0 -0.984375 0.328125q-0.421875 0.328125 -0.609375 0.90625q-0.28125 0.890625 -0.28125 1.953125l0 5.15625l-1.671875 0zm5.603302 -4.921875q0 -2.734375 1.53125 -4.0625q1.265625 -1.09375 3.09375 -1.09375q2.03125 0 3.3125 1.34375q1.296875 1.328125 1.296875 3.671875q0 1.90625 -0.578125 3.0q-0.5625 1.078125 -1.65625 1.6875q-1.078125 0.59375 -2.375 0.59375q-2.0625 0 -3.34375 -1.328125q-1.28125 -1.328125 -1.28125 -3.8125zm1.71875 0q0 1.890625 0.828125 2.828125q0.828125 0.9375 2.078125 0.9375q1.25 0 2.0625 -0.9375q0.828125 -0.953125 0.828125 -2.890625q0 -1.828125 -0.828125 -2.765625q-0.828125 -0.9375 -2.0625 -0.9375q-1.25 0 -2.078125 0.9375q-0.828125 0.9375 -0.828125 2.828125zm15.672607 4.921875l0 -1.25q-0.9375 1.46875 -2.75 1.46875q-1.171875 0 -2.171875 -0.640625q-0.984375 -0.65625 -1.53125 -1.8125q-0.53125 -1.171875 -0.53125 -2.6875q0 -1.46875 0.484375 -2.671875q0.5 -1.203125 1.46875 -1.84375q0.984375 -0.640625 2.203125 -0.640625q0.890625 0 1.578125 0.375q0.703125 0.375 1.140625 0.984375l0 -4.875l1.65625 0l0 13.59375l-1.546875 0zm-5.28125 -4.921875q0 1.890625 0.796875 2.828125q0.8125 0.9375 1.890625 0.9375q1.09375 0 1.859375 -0.890625q0.765625 -0.890625 0.765625 -2.734375q0 -2.015625 -0.78125 -2.953125q-0.78125 -0.953125 -1.921875 -0.953125q-1.109375 0 -1.859375 0.90625q-0.75 0.90625 -0.75 2.859375zm15.719452 4.921875l0 -1.453125q-1.140625 1.671875 -3.125 1.671875q-0.859375 0 -1.625 -0.328125q-0.75 -0.34375 -1.125 -0.84375q-0.359375 -0.5 -0.515625 -1.234375q-0.09375 -0.5 -0.09375 -1.5625l0 -6.109375l1.671875 0l0 5.46875q0 1.3125 0.09375 1.765625q0.15625 0.65625 0.671875 1.03125q0.515625 0.375 1.265625 0.375q0.75 0 1.40625 -0.375q0.65625 -0.390625 0.921875 -1.046875q0.28125 -0.671875 0.28125 -1.9375l0 -5.28125l1.671875 0l0 9.859375l-1.5 0zm10.360107 -3.609375l1.640625 0.21875q-0.265625 1.6875 -1.375 2.65625q-1.109375 0.953125 -2.734375 0.953125q-2.015625 0 -3.25 -1.3125q-1.21875 -1.328125 -1.21875 -3.796875q0 -1.59375 0.515625 -2.78125q0.53125 -1.203125 1.609375 -1.796875q1.09375 -0.609375 2.359375 -0.609375q1.609375 0 2.625 0.8125q1.015625 0.8125 1.3125 2.3125l-1.625 0.25q-0.234375 -1.0 -0.828125 -1.5q-0.59375 -0.5 -1.421875 -0.5q-1.265625 0 -2.0625 0.90625q-0.78125 0.90625 -0.78125 2.859375q0 1.984375 0.765625 2.890625q0.765625 0.890625 1.984375 0.890625q0.984375 0 1.640625 -0.59375q0.65625 -0.609375 0.84375 -1.859375zm6.546875 2.109375l0.234375 1.484375q-0.703125 0.140625 -1.265625 0.140625q-0.90625 0 -1.40625 -0.28125q-0.5 -0.296875 -0.703125 -0.75q-0.203125 -0.46875 -0.203125 -1.984375l0 -5.65625l-1.234375 0l0 -1.3125l1.234375 0l0 -2.4375l1.65625 -1.0l0 3.4375l1.6875 0l0 1.3125l-1.6875 0l0 5.75q0 0.71875 0.078125 0.921875q0.09375 0.203125 0.296875 0.328125q0.203125 0.125 0.578125 0.125q0.265625 0 0.734375 -0.078125zm1.5426636 -10.1875l0 -1.90625l1.671875 0l0 1.90625l-1.671875 0zm0 11.6875l0 -9.859375l1.671875 0l0 9.859375l-1.671875 0zm3.5042114 -4.921875q0 -2.734375 1.53125 -4.0625q1.265625 -1.09375 3.09375 -1.09375q2.03125 0 3.3125 1.34375q1.296875 1.328125 1.296875 3.671875q0 1.90625 -0.578125 3.0q-0.5625 1.078125 -1.65625 1.6875q-1.078125 0.59375 -2.375 0.59375q-2.0625 0 -3.34375 -1.328125q-1.28125 -1.328125 -1.28125 -3.8125zm1.71875 0q0 1.890625 0.828125 2.828125q0.828125 0.9375 2.078125 0.9375q1.25 0 2.0625 -0.9375q0.828125 -0.953125 0.828125 -2.890625q0 -1.828125 -0.828125 -2.765625q-0.828125 -0.9375 -2.0625 -0.9375q-1.25 0 -2.078125 0.9375q-0.828125 0.9375 -0.828125 2.828125zm9.281952 4.921875l0 -9.859375l1.5 0l0 1.40625q1.09375 -1.625 3.140625 -1.625q0.890625 0 1.640625 0.328125q0.75 0.3125 1.109375 0.84375q0.375 0.515625 0.53125 1.21875q0.09375 0.46875 0.09375 1.625l0 6.0625l-1.671875 0l0 -6.0q0 -1.015625 -0.203125 -1.515625q-0.1875 -0.515625 -0.6875 -0.8125q-0.5 -0.296875 -1.171875 -0.296875q-1.0625 0 -1.84375 0.671875q-0.765625 0.671875 -0.765625 2.578125l0 5.375l-1.671875 0zm15.809021 0l0 -13.59375l9.84375 0l0 1.59375l-8.046875 0l0 4.171875l7.53125 0l0 1.59375l-7.53125 0l0 4.625l8.359375 0l0 1.609375l-10.15625 0zm12.193573 0l0 -9.859375l1.5 0l0 1.40625q1.09375 -1.625 3.140625 -1.625q0.890625 0 1.640625 0.328125q0.75 0.3125 1.109375 0.84375q0.375 0.515625 0.53125 1.21875q0.09375 0.46875 0.09375 1.625l0 6.0625l-1.671875 0l0 -6.0q0 -1.015625 -0.203125 -1.515625q-0.1875 -0.515625 -0.6875 -0.8125q-0.5 -0.296875 -1.171875 -0.296875q-1.0625 0 -1.84375 0.671875q-0.765625 0.671875 -0.765625 2.578125l0 5.375l-1.671875 0zm13.110107 0l-3.75 -9.859375l1.765625 0l2.125 5.90625q0.34375 0.953125 0.625 1.984375q0.21875 -0.78125 0.625 -1.875l2.1875 -6.015625l1.71875 0l-3.734375 9.859375l-1.5625 0zm6.609375 -11.6875l0 -1.90625l1.671875 0l0 1.90625l-1.671875 0zm0 11.6875l0 -9.859375l1.671875 0l0 9.859375l-1.671875 0zm4.1135864 0l0 -9.859375l1.5 0l0 1.5q0.578125 -1.046875 1.0625 -1.375q0.484375 -0.34375 1.078125 -0.34375q0.84375 0 1.71875 0.546875l-0.578125 1.546875q-0.609375 -0.359375 -1.234375 -0.359375q-0.546875 0 -0.984375 0.328125q-0.421875 0.328125 -0.609375 0.90625q-0.28125 0.890625 -0.28125 1.953125l0 5.15625l-1.671875 0zm5.6032715 -4.921875q0 -2.734375 1.53125 -4.0625q1.265625 -1.09375 3.09375 -1.09375q2.03125 0 3.3125 1.34375q1.296875 1.328125 1.296875 3.671875q0 1.90625 -0.578125 3.0q-0.5625 1.078125 -1.65625 1.6875q-1.078125 0.59375 -2.375 0.59375q-2.0625 0 -3.34375 -1.328125q-1.28125 -1.328125 -1.28125 -3.8125zm1.71875 0q0 1.890625 0.828125 2.828125q0.828125 0.9375 2.078125 0.9375q1.25 0 2.0625 -0.9375q0.828125 -0.953125 0.828125 -2.890625q0 -1.828125 -0.828125 -2.765625q-0.828125 -0.9375 -2.0625 -0.9375q-1.25 0 -2.078125 0.9375q-0.828125 0.9375 -0.828125 2.828125zm9.281982 4.921875l0 -9.859375l1.5 0l0 1.40625q1.09375 -1.625 3.140625 -1.625q0.890625 0 1.640625 0.328125q0.75 0.3125 1.109375 0.84375q0.375 0.515625 0.53125 1.21875q0.09375 0.46875 0.09375 1.625l0 6.0625l-1.671875 0l0 -6.0q0 -1.015625 -0.203125 -1.515625q-0.1875 -0.515625 -0.6875 -0.8125q-0.5 -0.296875 -1.171875 -0.296875q-1.0625 0 -1.84375 0.671875q-0.765625 0.671875 -0.765625 2.578125l0 5.375l-1.671875 0zm10.375732 0l0 -9.859375l1.5 0l0 1.390625q0.453125 -0.71875 1.21875 -1.15625q0.78125 -0.453125 1.765625 -0.453125q1.09375 0 1.796875 0.453125q0.703125 0.453125 0.984375 1.28125q1.171875 -1.734375 3.046875 -1.734375q1.46875 0 2.25 0.8125q0.796875 0.8125 0.796875 2.5l0 6.765625l-1.671875 0l0 -6.203125q0 -1.0 -0.15625 -1.4375q-0.15625 -0.453125 -0.59375 -0.71875q-0.421875 -0.265625 -1.0 -0.265625q-1.03125 0 -1.71875 0.6875q-0.6875 0.6875 -0.6875 2.21875l0 5.71875l-1.671875 0l0 -6.40625q0 -1.109375 -0.40625 -1.65625q-0.40625 -0.5625 -1.34375 -0.5625q-0.703125 0 -1.3125 0.375q-0.59375 0.359375 -0.859375 1.078125q-0.265625 0.71875 -0.265625 2.0625l0 5.109375l-1.671875 0zm22.290771 -3.171875l1.71875 0.21875q-0.40625 1.5 -1.515625 2.34375q-1.09375 0.828125 -2.8125 0.828125q-2.15625 0 -3.421875 -1.328125q-1.265625 -1.328125 -1.265625 -3.734375q0 -2.484375 1.265625 -3.859375q1.28125 -1.375 3.328125 -1.375q1.984375 0 3.234375 1.34375q1.25 1.34375 1.25 3.796875q0 0.140625 -0.015625 0.4375l-7.34375 0q0.09375 1.625 0.921875 2.484375q0.828125 0.859375 2.0625 0.859375q0.90625 0 1.546875 -0.46875q0.65625 -0.484375 1.046875 -1.546875zm-5.484375 -2.703125l5.5 0q-0.109375 -1.234375 -0.625 -1.859375q-0.796875 -0.96875 -2.078125 -0.96875q-1.140625 0 -1.9375 0.78125q-0.78125 0.765625 -0.859375 2.046875zm9.110107 5.875l0 -9.859375l1.5 0l0 1.40625q1.09375 -1.625 3.140625 -1.625q0.890625 0 1.640625 0.328125q0.75 0.3125 1.109375 0.84375q0.375 0.515625 0.53125 1.21875q0.09375 0.46875 0.09375 1.625l0 6.0625l-1.671875 0l0 -6.0q0 -1.015625 -0.203125 -1.515625q-0.1875 -0.515625 -0.6875 -0.8125q-0.5 -0.296875 -1.171875 -0.296875q-1.0625 0 -1.84375 0.671875q-0.765625 0.671875 -0.765625 2.578125l0 5.375l-1.671875 0zm14.031982 -1.5l0.234375 1.484375q-0.703125 0.140625 -1.265625 0.140625q-0.90625 0 -1.40625 -0.28125q-0.5 -0.296875 -0.703125 -0.75q-0.203125 -0.46875 -0.203125 -1.984375l0 -5.65625l-1.234375 0l0 -1.3125l1.234375 0l0 -2.4375l1.65625 -1.0l0 3.4375l1.6875 0l0 1.3125l-1.6875 0l0 5.75q0 0.71875 0.078125 0.921875q0.09375 0.203125 0.296875 0.328125q0.203125 0.125 0.578125 0.125q0.265625 0 0.734375 -0.078125z" fill-rule="nonzero"></path><path fill="#e06666" d="m336.32596 128.96373l0 0c-0.7807312 -5.2618484 1.7825623 -10.470757 6.6022034 -13.416397c4.8196106 -2.9456406 11.050293 -3.111412 16.048157 -0.4269638l0 0c1.7703857 -3.0594559 5.0107117 -5.1718063 8.740845 -5.6980896c3.730133 -0.5262909 7.511963 0.59529114 10.201538 3.0254898l0 0c1.5081482 -2.773903 4.4694214 -4.6376114 7.8329773 -4.929779c3.3635864 -0.2921753 6.6534424 1.0285339 8.702179 3.4934769l0 0c2.724701 -2.9403305 7.059723 -4.1783295 11.1293335 -3.1783142c4.0696106 1.0000153 7.1428223 4.058441 7.889862 7.8518677l0 0c3.3381958 0.83506775 6.118866 2.9579163 7.623535 5.8200684c1.5046692 2.862152 1.5857544 6.1828384 0.22229004 9.104103l0 0c3.2871704 3.923584 4.0560913 9.151703 2.0198975 13.733322c-2.0362244 4.5816193 -6.571686 7.8283997 -11.913818 8.528702c-0.03765869 4.3000183 -2.6091003 8.2456665 -6.723175 10.316101c-4.1140747 2.0704498 -9.128357 1.9423981 -13.110107 -0.33480835c-1.6960144 5.150009 -6.469757 8.939331 -12.258789 9.73085c-5.7890015 0.79151917 -11.555511 -1.5566711 -14.8081665 -6.03006c-3.9870605 2.204956 -8.77124 2.8401184 -13.273254 1.7622375c-4.502014 -1.0778656 -8.342682 -3.7780151 -10.65564 -7.4913177l0 0c-4.07428 0.43725586 -8.01355 -1.4986572 -9.862762 -4.846924c-1.8492126 -3.3482819 -1.2146912 -7.396164 1.588623 -10.134705l0 0c-3.634369 -1.9617462 -5.488861 -5.854538 -4.596405 -9.648392c0.89245605 -3.793869 4.3296204 -6.62912 8.5191345 -7.027298z" fill-rule="nonzero"></path><path fill="#000000" fill-opacity="0.0" d="m332.3227 145.84222l0 0c1.7150879 0.92575073 3.6963806 1.3457031 5.6779175 1.2034454m2.5953674 13.778503c0.8521118 -0.09144592 1.6873779 -0.2850952 2.484192 -0.5759735m21.443481 6.304825c-0.5993347 -0.8242645 -1.1011047 -1.7050629 -1.4968262 -2.6273956m28.56482 -1.0735626l0 0c0.3092041 -0.93891907 0.509552 -1.9052734 0.59768677 -2.8829346m19.234833 -7.097992c0.040100098 -4.578018 -2.795166 -8.769714 -7.2879333 -10.774612m17.181793 -11.486923c-0.7276001 1.5588989 -1.8383484 2.9417877 -3.2451782 4.040222m-4.5999756 -18.964806l0 0c0.12399292 0.62952423 0.18136597 1.2685089 0.17132568 1.9080963m-19.190186 -6.581459l0 0c-0.6796875 0.7334595 -1.2396545 1.5531006 -1.6624451 2.4333878m-14.872894 -0.997406l0 0c-0.36218262 0.66619873 -0.6326599 1.3711548 -0.8051758 2.0986252m-18.137482 0.574028l0 0c1.0575562 0.5680237 2.0359192 1.251709 2.9136353 2.036026m-25.56369 11.807411l0 0c0.10760498 0.7252197 0.27764893 1.4414978 0.5084839 2.1421356" fill-rule="nonzero"></path><path stroke="#000000" stroke-width="2.0" stroke-linejoin="round" stroke-linecap="butt" d="m336.32596 128.96373l0 0c-0.7807312 -5.2618484 1.7825623 -10.470757 6.6022034 -13.416397c4.8196106 -2.9456406 11.050293 -3.111412 16.048157 -0.4269638l0 0c1.7703857 -3.0594559 5.0107117 -5.1718063 8.740845 -5.6980896c3.730133 -0.5262909 7.511963 0.59529114 10.201538 3.0254898l0 0c1.5081482 -2.773903 4.4694214 -4.6376114 7.8329773 -4.929779c3.3635864 -0.2921753 6.6534424 1.0285339 8.702179 3.4934769l0 0c2.724701 -2.9403305 7.059723 -4.1783295 11.1293335 -3.1783142c4.0696106 1.0000153 7.1428223 4.058441 7.889862 7.8518677l0 0c3.3381958 0.83506775 6.118866 2.9579163 7.623535 5.8200684c1.5046692 2.862152 1.5857544 6.1828384 0.22229004 9.104103l0 0c3.2871704 3.923584 4.0560913 9.151703 2.0198975 13.733322c-2.0362244 4.5816193 -6.571686 7.8283997 -11.913818 8.528702c-0.03765869 4.3000183 -2.6091003 8.2456665 -6.723175 10.316101c-4.1140747 2.0704498 -9.128357 1.9423981 -13.110107 -0.33480835c-1.6960144 5.150009 -6.469757 8.939331 -12.258789 9.73085c-5.7890015 0.79151917 -11.555511 -1.5566711 -14.8081665 -6.03006c-3.9870605 2.204956 -8.77124 2.8401184 -13.273254 1.7622375c-4.502014 -1.0778656 -8.342682 -3.7780151 -10.65564 -7.4913177l0 0c-4.07428 0.43725586 -8.01355 -1.4986572 -9.862762 -4.846924c-1.8492126 -3.3482819 -1.2146912 -7.396164 1.588623 -10.134705l0 0c-3.634369 -1.9617462 -5.488861 -5.854538 -4.596405 -9.648392c0.89245605 -3.793869 4.3296204 -6.62912 8.5191345 -7.027298z" fill-rule="nonzero"></path><path stroke="#000000" stroke-width="2.0" stroke-linejoin="round" stroke-linecap="butt" d="m332.3227 145.84222l0 0c1.7150879 0.92575073 3.6963806 1.3457031 5.6779175 1.2034454m2.5953674 13.778503c0.8521118 -0.09144592 1.6873779 -0.2850952 2.484192 -0.5759735m21.443481 6.304825c-0.5993347 -0.8242645 -1.1011047 -1.7050629 -1.4968262 -2.6273956m28.56482 -1.0735626l0 0c0.3092041 -0.93891907 0.509552 -1.9052734 0.59768677 -2.8829346m19.234833 -7.097992c0.040100098 -4.578018 -2.795166 -8.769714 -7.2879333 -10.774612m17.181793 -11.486923c-0.7276001 1.5588989 -1.8383484 2.9417877 -3.2451782 4.040222m-4.5999756 -18.964806l0 0c0.12399292 0.62952423 0.18136597 1.2685089 0.17132568 1.9080963m-19.190186 -6.581459l0 0c-0.6796875 0.7334595 -1.2396545 1.5531006 -1.6624451 2.4333878m-14.872894 -0.997406l0 0c-0.36218262 0.66619873 -0.6326599 1.3711548 -0.8051758 2.0986252m-18.137482 0.574028l0 0c1.0575562 0.5680237 2.0359192 1.251709 2.9136353 2.036026m-25.56369 11.807411l0 0c0.10760498 0.7252197 0.27764893 1.4414978 0.5084839 2.1421356" fill-rule="nonzero"></path><path fill="#000000" d="m353.834 145.28935l0 -13.59375l9.84375 0l0 1.59375l-8.046875 0l0 4.171875l7.53125 0l0 1.59375l-7.53125 0l0 4.625l8.359375 0l0 1.609375l-10.15625 0zm16.302948 0l-5.28125 -13.59375l1.953125 0l3.53125 9.875q0.4375 1.1875 0.71875 2.21875q0.3125 -1.109375 0.734375 -2.21875l3.671875 -9.875l1.84375 0l-5.328125 13.59375l-1.84375 0zm8.849823 0l0 -13.59375l1.8125 0l0 13.59375l-1.8125 0zm4.8082886 0l0 -13.59375l1.796875 0l0 11.984375l6.703125 0l0 1.609375l-8.5 0z" fill-rule="nonzero"></path><path fill="#cfe2f3" d="m274.2756 351.09485l200.6614 0l0 85.63782l-200.6614 0z" fill-rule="nonzero"></path><path stroke="#000000" stroke-width="2.0" stroke-linejoin="round" stroke-linecap="butt" d="m274.2756 351.09485l200.6614 0l0 85.63782l-200.6614 0z" fill-rule="nonzero"></path><path fill="#000000" d="m329.2041 400.83374l-3.609375 -13.59375l1.84375 0l2.0625 8.90625q0.34375 1.40625 0.578125 2.78125q0.515625 -2.171875 0.609375 -2.515625l2.59375 -9.171875l2.171875 0l1.953125 6.875q0.734375 2.5625 1.046875 4.8125q0.265625 -1.28125 0.6875 -2.953125l2.125 -8.734375l1.8125 0l-3.734375 13.59375l-1.734375 0l-2.859375 -10.359375q-0.359375 -1.296875 -0.421875 -1.59375q-0.21875 0.9375 -0.40625 1.59375l-2.890625 10.359375l-1.828125 0zm21.764923 -3.171875l1.71875 0.21875q-0.40625 1.5 -1.515625 2.34375q-1.09375 0.828125 -2.8125 0.828125q-2.15625 0 -3.421875 -1.328125q-1.265625 -1.328125 -1.265625 -3.734375q0 -2.484375 1.265625 -3.859375q1.28125 -1.375 3.328125 -1.375q1.984375 0 3.234375 1.34375q1.25 1.34375 1.25 3.796875q0 0.140625 -0.015625 0.4375l-7.34375 0q0.09375 1.625 0.921875 2.484375q0.828125 0.859375 2.0625 0.859375q0.90625 0 1.546875 -0.46875q0.65625 -0.484375 1.046875 -1.546875zm-5.484375 -2.703125l5.5 0q-0.109375 -1.234375 -0.625 -1.859375q-0.796875 -0.96875 -2.078125 -0.96875q-1.140625 0 -1.9375 0.78125q-0.78125 0.765625 -0.859375 2.046875zm10.656952 5.875l-1.546875 0l0 -13.59375l1.65625 0l0 4.84375q1.0625 -1.328125 2.703125 -1.328125q0.90625 0 1.71875 0.375q0.8125 0.359375 1.328125 1.03125q0.53125 0.65625 0.828125 1.59375q0.296875 0.9375 0.296875 2.0q0 2.53125 -1.25 3.921875q-1.25 1.375 -3.0 1.375q-1.75 0 -2.734375 -1.453125l0 1.234375zm-0.015625 -5.0q0 1.765625 0.46875 2.5625q0.796875 1.28125 2.140625 1.28125q1.09375 0 1.890625 -0.9375q0.796875 -0.953125 0.796875 -2.84375q0 -1.921875 -0.765625 -2.84375q-0.765625 -0.921875 -1.84375 -0.921875q-1.09375 0 -1.890625 0.953125q-0.796875 0.953125 -0.796875 2.75zm13.637146 0.625l1.6875 -0.140625q0.125 1.015625 0.5625 1.671875q0.4375 0.65625 1.359375 1.0625q0.9375 0.40625 2.09375 0.40625q1.03125 0 1.8125 -0.3125q0.796875 -0.3125 1.1875 -0.84375q0.390625 -0.53125 0.390625 -1.15625q0 -0.640625 -0.375 -1.109375q-0.375 -0.484375 -1.234375 -0.8125q-0.546875 -0.21875 -2.421875 -0.65625q-1.875 -0.453125 -2.625 -0.859375q-0.96875 -0.515625 -1.453125 -1.265625q-0.46875 -0.75 -0.46875 -1.6875q0 -1.03125 0.578125 -1.921875q0.59375 -0.90625 1.703125 -1.359375q1.125 -0.46875 2.5 -0.46875q1.515625 0 2.671875 0.484375q1.15625 0.484375 1.765625 1.4375q0.625 0.9375 0.671875 2.140625l-1.71875 0.125q-0.140625 -1.28125 -0.953125 -1.9375q-0.796875 -0.671875 -2.359375 -0.671875q-1.625 0 -2.375 0.609375q-0.75 0.59375 -0.75 1.4375q0 0.734375 0.53125 1.203125q0.515625 0.46875 2.703125 0.96875q2.203125 0.5 3.015625 0.875q1.1875 0.546875 1.75 1.390625q0.578125 0.828125 0.578125 1.921875q0 1.09375 -0.625 2.0625q-0.625 0.953125 -1.796875 1.484375q-1.15625 0.53125 -2.609375 0.53125q-1.84375 0 -3.09375 -0.53125q-1.25 -0.546875 -1.96875 -1.625q-0.703125 -1.078125 -0.734375 -2.453125zm19.584198 1.203125l1.71875 0.21875q-0.40625 1.5 -1.515625 2.34375q-1.09375 0.828125 -2.8125 0.828125q-2.15625 0 -3.421875 -1.328125q-1.265625 -1.328125 -1.265625 -3.734375q0 -2.484375 1.265625 -3.859375q1.28125 -1.375 3.328125 -1.375q1.984375 0 3.234375 1.34375q1.25 1.34375 1.25 3.796875q0 0.140625 -0.015625 0.4375l-7.34375 0q0.09375 1.625 0.921875 2.484375q0.828125 0.859375 2.0625 0.859375q0.90625 0 1.546875 -0.46875q0.65625 -0.484375 1.046875 -1.546875zm-5.484375 -2.703125l5.5 0q-0.109375 -1.234375 -0.625 -1.859375q-0.796875 -0.96875 -2.078125 -0.96875q-1.140625 0 -1.9375 0.78125q-0.78125 0.765625 -0.859375 2.046875zm9.094482 5.875l0 -9.859375l1.5 0l0 1.5q0.578125 -1.046875 1.0625 -1.375q0.484375 -0.34375 1.078125 -0.34375q0.84375 0 1.71875 0.546875l-0.578125 1.546875q-0.609375 -0.359375 -1.234375 -0.359375q-0.546875 0 -0.984375 0.328125q-0.421875 0.328125 -0.609375 0.90625q-0.28125 0.890625 -0.28125 1.953125l0 5.15625l-1.671875 0zm8.962677 0l-3.75 -9.859375l1.765625 0l2.125 5.90625q0.34375 0.953125 0.625 1.984375q0.21875 -0.78125 0.625 -1.875l2.1875 -6.015625l1.71875 0l-3.734375 9.859375l-1.5625 0zm13.34375 -3.171875l1.71875 0.21875q-0.40625 1.5 -1.515625 2.34375q-1.09375 0.828125 -2.8125 0.828125q-2.15625 0 -3.421875 -1.328125q-1.265625 -1.328125 -1.265625 -3.734375q0 -2.484375 1.265625 -3.859375q1.28125 -1.375 3.328125 -1.375q1.984375 0 3.234375 1.34375q1.25 1.34375 1.25 3.796875q0 0.140625 -0.015625 0.4375l-7.34375 0q0.09375 1.625 0.921875 2.484375q0.828125 0.859375 2.0625 0.859375q0.90625 0 1.546875 -0.46875q0.65625 -0.484375 1.046875 -1.546875zm-5.484375 -2.703125l5.5 0q-0.109375 -1.234375 -0.625 -1.859375q-0.796875 -0.96875 -2.078125 -0.96875q-1.140625 0 -1.9375 0.78125q-0.78125 0.765625 -0.859375 2.046875zm9.094482 5.875l0 -9.859375l1.5 0l0 1.5q0.578125 -1.046875 1.0625 -1.375q0.484375 -0.34375 1.078125 -0.34375q0.84375 0 1.71875 0.546875l-0.578125 1.546875q-0.609375 -0.359375 -1.234375 -0.359375q-0.546875 0 -0.984375 0.328125q-0.421875 0.328125 -0.609375 0.90625q-0.28125 0.890625 -0.28125 1.953125l0 5.15625l-1.671875 0z" fill-rule="nonzero"></path><path fill="#cfe2f3" d="m558.7808 472.24973l0 0c0 7.668915 24.867615 13.885803 55.543335 13.885803c30.67572 0 55.543274 -6.2168884 55.543274 -13.885803l0 88.480316c0 7.6689453 -24.867554 13.885803 -55.543274 13.885803c-30.67572 0 -55.543335 -6.216858 -55.543335 -13.885803z" fill-rule="nonzero"></path><path fill="#e2edf7" d="m558.7808 472.24973l0 0c0 -7.6689453 24.867615 -13.885834 55.543335 -13.885834c30.67572 0 55.543274 6.2168884 55.543274 13.885834l0 0c0 7.668915 -24.867554 13.885803 -55.543274 13.885803c-30.67572 0 -55.543335 -6.2168884 -55.543335 -13.885803z" fill-rule="nonzero"></path><path fill="#000000" fill-opacity="0.0" d="m669.86743 472.24973l0 0c0 7.668915 -24.867554 13.885803 -55.543274 13.885803c-30.67572 0 -55.543335 -6.2168884 -55.543335 -13.885803l0 0c0 -7.6689453 24.867615 -13.885834 55.543335 -13.885834c30.67572 0 55.543274 6.2168884 55.543274 13.885834l0 88.480316c0 7.6689453 -24.867554 13.885803 -55.543274 13.885803c-30.67572 0 -55.543335 -6.216858 -55.543335 -13.885803l0 -88.480316" fill-rule="nonzero"></path><path stroke="#000000" stroke-width="2.0" stroke-linejoin="round" stroke-linecap="butt" d="m669.86743 472.24973l0 0c0 7.668915 -24.867554 13.885803 -55.543274 13.885803c-30.67572 0 -55.543335 -6.2168884 -55.543335 -13.885803l0 0c0 -7.6689453 24.867615 -13.885834 55.543335 -13.885834c30.67572 0 55.543274 6.2168884 55.543274 13.885834l0 88.480316c0 7.6689453 -24.867554 13.885803 -55.543274 13.885803c-30.67572 0 -55.543335 -6.216858 -55.543335 -13.885803l0 -88.480316" fill-rule="nonzero"></path><path fill="#000000" d="m578.3721 525.9778l1.6875 -0.140625q0.125 1.015625 0.5625 1.671875q0.4375 0.65625 1.359375 1.0625q0.9375 0.40625 2.09375 0.40625q1.03125 0 1.8125 -0.3125q0.796875 -0.3125 1.1875 -0.84375q0.390625 -0.53125 0.390625 -1.15625q0 -0.640625 -0.375 -1.109375q-0.375 -0.484375 -1.234375 -0.8125q-0.546875 -0.21875 -2.421875 -0.65625q-1.875 -0.453125 -2.625 -0.859375q-0.96875 -0.515625 -1.453125 -1.265625q-0.46875 -0.75 -0.46875 -1.6875q0 -1.03125 0.578125 -1.921875q0.59375 -0.90625 1.703125 -1.359375q1.125 -0.46875 2.5 -0.46875q1.515625 0 2.671875 0.484375q1.15625 0.484375 1.765625 1.4375q0.625 0.9375 0.671875 2.140625l-1.71875 0.125q-0.140625 -1.28125 -0.953125 -1.9375q-0.796875 -0.671875 -2.359375 -0.671875q-1.625 0 -2.375 0.609375q-0.75 0.59375 -0.75 1.4375q0 0.734375 0.53125 1.203125q0.515625 0.46875 2.703125 0.96875q2.203125 0.5 3.015625 0.875q1.1875 0.546875 1.75 1.390625q0.578125 0.828125 0.578125 1.921875q0 1.09375 -0.625 2.0625q-0.625 0.953125 -1.796875 1.484375q-1.15625 0.53125 -2.609375 0.53125q-1.84375 0 -3.09375 -0.53125q-1.25 -0.546875 -1.96875 -1.625q-0.703125 -1.078125 -0.734375 -2.453125zm16.490417 2.875l0.234375 1.484375q-0.703125 0.140625 -1.265625 0.140625q-0.90625 0 -1.40625 -0.28125q-0.5 -0.296875 -0.703125 -0.75q-0.203125 -0.46875 -0.203125 -1.984375l0 -5.65625l-1.234375 0l0 -1.3125l1.234375 0l0 -2.4375l1.65625 -1.0l0 3.4375l1.6875 0l0 1.3125l-1.6875 0l0 5.75q0 0.71875 0.078125 0.921875q0.09375 0.203125 0.296875 0.328125q0.203125 0.125 0.578125 0.125q0.265625 0 0.734375 -0.078125zm8.277039 -1.671875l1.71875 0.21875q-0.40625 1.5 -1.515625 2.34375q-1.09375 0.828125 -2.8125 0.828125q-2.15625 0 -3.421875 -1.328125q-1.265625 -1.328125 -1.265625 -3.734375q0 -2.484375 1.265625 -3.859375q1.28125 -1.375 3.328125 -1.375q1.984375 0 3.234375 1.34375q1.25 1.34375 1.25 3.796875q0 0.140625 -0.015625 0.4375l-7.34375 0q0.09375 1.625 0.921875 2.484375q0.828125 0.859375 2.0625 0.859375q0.90625 0 1.546875 -0.46875q0.65625 -0.484375 1.046875 -1.546875zm-5.484375 -2.703125l5.5 0q-0.109375 -1.234375 -0.625 -1.859375q-0.796875 -0.96875 -2.078125 -0.96875q-1.140625 0 -1.9375 0.78125q-0.78125 0.765625 -0.859375 2.046875zm15.547607 4.65625q-0.9375 0.796875 -1.796875 1.125q-0.859375 0.3125 -1.84375 0.3125q-1.609375 0 -2.484375 -0.78125q-0.875 -0.796875 -0.875 -2.03125q0 -0.734375 0.328125 -1.328125q0.328125 -0.59375 0.859375 -0.953125q0.53125 -0.359375 1.203125 -0.546875q0.5 -0.140625 1.484375 -0.25q2.03125 -0.25 2.984375 -0.578125q0 -0.34375 0 -0.4375q0 -1.015625 -0.46875 -1.4375q-0.640625 -0.5625 -1.90625 -0.5625q-1.171875 0 -1.734375 0.40625q-0.5625 0.40625 -0.828125 1.46875l-1.640625 -0.234375q0.234375 -1.046875 0.734375 -1.6875q0.515625 -0.640625 1.46875 -0.984375q0.96875 -0.359375 2.25 -0.359375q1.265625 0 2.046875 0.296875q0.78125 0.296875 1.15625 0.75q0.375 0.453125 0.515625 1.140625q0.09375 0.421875 0.09375 1.53125l0 2.234375q0 2.328125 0.09375 2.953125q0.109375 0.609375 0.4375 1.171875l-1.75 0q-0.265625 -0.515625 -0.328125 -1.21875zm-0.140625 -3.71875q-0.90625 0.359375 -2.734375 0.625q-1.03125 0.140625 -1.453125 0.328125q-0.421875 0.1875 -0.65625 0.546875q-0.234375 0.359375 -0.234375 0.796875q0 0.671875 0.5 1.125q0.515625 0.4375 1.484375 0.4375q0.96875 0 1.71875 -0.421875q0.75 -0.4375 1.109375 -1.15625q0.265625 -0.578125 0.265625 -1.671875l0 -0.609375zm4.0476074 4.9375l0 -13.59375l1.671875 0l0 13.59375l-1.671875 0zm9.515625 0l0 -13.59375l2.71875 0l3.21875 9.625q0.4375 1.34375 0.640625 2.015625q0.234375 -0.75 0.734375 -2.1875l3.25 -9.453125l2.421875 0l0 13.59375l-1.734375 0l0 -11.390625l-3.953125 11.390625l-1.625 0l-3.9375 -11.578125l0 11.578125l-1.734375 0zm22.134521 -3.171875l1.71875 0.21875q-0.40625 1.5 -1.515625 2.34375q-1.09375 0.828125 -2.8125 0.828125q-2.15625 0 -3.421875 -1.328125q-1.265625 -1.328125 -1.265625 -3.734375q0 -2.484375 1.265625 -3.859375q1.28125 -1.375 3.328125 -1.375q1.984375 0 3.234375 1.34375q1.25 1.34375 1.25 3.796875q0 0.140625 -0.015625 0.4375l-7.34375 0q0.09375 1.625 0.921875 2.484375q0.828125 0.859375 2.0625 0.859375q0.90625 0 1.546875 -0.46875q0.65625 -0.484375 1.046875 -1.546875zm-5.484375 -2.703125l5.5 0q-0.109375 -1.234375 -0.625 -1.859375q-0.796875 -0.96875 -2.078125 -0.96875q-1.140625 0 -1.9375 0.78125q-0.78125 0.765625 -0.859375 2.046875z" fill-rule="nonzero"></path><path fill="#cfe2f3" d="m274.2756 449.67096l200.6614 0l0 85.63782l-200.6614 0z" fill-rule="nonzero"></path><path stroke="#000000" stroke-width="2.0" stroke-linejoin="round" stroke-linecap="butt" d="m274.2756 449.67096l200.6614 0l0 85.63782l-200.6614 0z" fill-rule="nonzero"></path><path fill="#000000" d="m298.87512 499.40988l5.234375 -13.59375l1.9375 0l5.5625 13.59375l-2.046875 0l-1.59375 -4.125l-5.6875 0l-1.484375 4.125l-1.921875 0zm3.921875 -5.578125l4.609375 0l-1.40625 -3.78125q-0.65625 -1.703125 -0.96875 -2.8125q-0.265625 1.3125 -0.734375 2.59375l-1.5 4.0zm9.802948 9.359375l0 -13.640625l1.53125 0l0 1.28125q0.53125 -0.75 1.203125 -1.125q0.6875 -0.375 1.640625 -0.375q1.265625 0 2.234375 0.65625q0.96875 0.640625 1.453125 1.828125q0.5 1.1875 0.5 2.59375q0 1.515625 -0.546875 2.734375q-0.546875 1.203125 -1.578125 1.84375q-1.03125 0.640625 -2.171875 0.640625q-0.84375 0 -1.515625 -0.34375q-0.65625 -0.359375 -1.078125 -0.890625l0 4.796875l-1.671875 0zm1.515625 -8.65625q0 1.90625 0.765625 2.8125q0.78125 0.90625 1.875 0.90625q1.109375 0 1.890625 -0.9375q0.796875 -0.9375 0.796875 -2.921875q0 -1.875 -0.78125 -2.8125q-0.765625 -0.9375 -1.84375 -0.9375q-1.0625 0 -1.890625 1.0q-0.8125 1.0 -0.8125 2.890625zm8.860107 8.65625l0 -13.640625l1.53125 0l0 1.28125q0.53125 -0.75 1.203125 -1.125q0.6875 -0.375 1.640625 -0.375q1.265625 0 2.234375 0.65625q0.96875 0.640625 1.453125 1.828125q0.5 1.1875 0.5 2.59375q0 1.515625 -0.546875 2.734375q-0.546875 1.203125 -1.578125 1.84375q-1.03125 0.640625 -2.171875 0.640625q-0.84375 0 -1.515625 -0.34375q-0.65625 -0.359375 -1.078125 -0.890625l0 4.796875l-1.671875 0zm1.515625 -8.65625q0 1.90625 0.765625 2.8125q0.78125 0.90625 1.875 0.90625q1.109375 0 1.890625 -0.9375q0.796875 -0.9375 0.796875 -2.921875q0 -1.875 -0.78125 -2.8125q-0.765625 -0.9375 -1.84375 -0.9375q-1.0625 0 -1.890625 1.0q-0.8125 1.0 -0.8125 2.890625zm8.828827 4.875l0 -13.59375l1.671875 0l0 13.59375l-1.671875 0zm4.1917114 -11.6875l0 -1.90625l1.671875 0l0 1.90625l-1.671875 0zm0 11.6875l0 -9.859375l1.671875 0l0 9.859375l-1.671875 0zm10.566681 -3.609375l1.640625 0.21875q-0.265625 1.6875 -1.375 2.65625q-1.109375 0.953125 -2.734375 0.953125q-2.015625 0 -3.25 -1.3125q-1.21875 -1.328125 -1.21875 -3.796875q0 -1.59375 0.515625 -2.78125q0.53125 -1.203125 1.609375 -1.796875q1.09375 -0.609375 2.359375 -0.609375q1.609375 0 2.625 0.8125q1.015625 0.8125 1.3125 2.3125l-1.625 0.25q-0.234375 -1.0 -0.828125 -1.5q-0.59375 -0.5 -1.421875 -0.5q-1.265625 0 -2.0625 0.90625q-0.78125 0.90625 -0.78125 2.859375q0 1.984375 0.765625 2.890625q0.765625 0.890625 1.984375 0.890625q0.984375 0 1.640625 -0.59375q0.65625 -0.609375 0.84375 -1.859375zm9.328125 2.390625q-0.9375 0.796875 -1.796875 1.125q-0.859375 0.3125 -1.84375 0.3125q-1.609375 0 -2.484375 -0.78125q-0.875 -0.796875 -0.875 -2.03125q0 -0.734375 0.328125 -1.328125q0.328125 -0.59375 0.859375 -0.953125q0.53125 -0.359375 1.203125 -0.546875q0.5 -0.140625 1.484375 -0.25q2.03125 -0.25 2.984375 -0.578125q0 -0.34375 0 -0.4375q0 -1.015625 -0.46875 -1.4375q-0.640625 -0.5625 -1.90625 -0.5625q-1.171875 0 -1.734375 0.40625q-0.5625 0.40625 -0.828125 1.46875l-1.640625 -0.234375q0.234375 -1.046875 0.734375 -1.6875q0.515625 -0.640625 1.46875 -0.984375q0.96875 -0.359375 2.25 -0.359375q1.265625 0 2.046875 0.296875q0.78125 0.296875 1.15625 0.75q0.375 0.453125 0.515625 1.140625q0.09375 0.421875 0.09375 1.53125l0 2.234375q0 2.328125 0.09375 2.953125q0.109375 0.609375 0.4375 1.171875l-1.75 0q-0.265625 -0.515625 -0.328125 -1.21875zm-0.140625 -3.71875q-0.90625 0.359375 -2.734375 0.625q-1.03125 0.140625 -1.453125 0.328125q-0.421875 0.1875 -0.65625 0.546875q-0.234375 0.359375 -0.234375 0.796875q0 0.671875 0.5 1.125q0.515625 0.4375 1.484375 0.4375q0.96875 0 1.71875 -0.421875q0.75 -0.4375 1.109375 -1.15625q0.265625 -0.578125 0.265625 -1.671875l0 -0.609375zm7.7351074 3.4375l0.234375 1.484375q-0.703125 0.140625 -1.265625 0.140625q-0.90625 0 -1.40625 -0.28125q-0.5 -0.296875 -0.703125 -0.75q-0.203125 -0.46875 -0.203125 -1.984375l0 -5.65625l-1.234375 0l0 -1.3125l1.234375 0l0 -2.4375l1.65625 -1.0l0 3.4375l1.6875 0l0 1.3125l-1.6875 0l0 5.75q0 0.71875 0.078125 0.921875q0.09375 0.203125 0.296875 0.328125q0.203125 0.125 0.578125 0.125q0.265625 0 0.734375 -0.078125zm1.5426636 -10.1875l0 -1.90625l1.671875 0l0 1.90625l-1.671875 0zm0 11.6875l0 -9.859375l1.671875 0l0 9.859375l-1.671875 0zm3.5042114 -4.921875q0 -2.734375 1.53125 -4.0625q1.265625 -1.09375 3.09375 -1.09375q2.03125 0 3.3125 1.34375q1.296875 1.328125 1.296875 3.671875q0 1.90625 -0.578125 3.0q-0.5625 1.078125 -1.65625 1.6875q-1.078125 0.59375 -2.375 0.59375q-2.0625 0 -3.34375 -1.328125q-1.28125 -1.328125 -1.28125 -3.8125zm1.71875 0q0 1.890625 0.828125 2.828125q0.828125 0.9375 2.078125 0.9375q1.25 0 2.0625 -0.9375q0.828125 -0.953125 0.828125 -2.890625q0 -1.828125 -0.828125 -2.765625q-0.828125 -0.9375 -2.0625 -0.9375q-1.25 0 -2.078125 0.9375q-0.828125 0.9375 -0.828125 2.828125zm9.281952 4.921875l0 -9.859375l1.5 0l0 1.40625q1.09375 -1.625 3.140625 -1.625q0.890625 0 1.640625 0.328125q0.75 0.3125 1.109375 0.84375q0.375 0.515625 0.53125 1.21875q0.09375 0.46875 0.09375 1.625l0 6.0625l-1.671875 0l0 -6.0q0 -1.015625 -0.203125 -1.515625q-0.1875 -0.515625 -0.6875 -0.8125q-0.5 -0.296875 -1.171875 -0.296875q-1.0625 0 -1.84375 0.671875q-0.765625 0.671875 -0.765625 2.578125l0 5.375l-1.671875 0zm15.168396 -4.375l1.6875 -0.140625q0.125 1.015625 0.5625 1.671875q0.4375 0.65625 1.359375 1.0625q0.9375 0.40625 2.09375 0.40625q1.0312805 0 1.8125305 -0.3125q0.796875 -0.3125 1.1875 -0.84375q0.390625 -0.53125 0.390625 -1.15625q0 -0.640625 -0.375 -1.109375q-0.375 -0.484375 -1.234375 -0.8125q-0.546875 -0.21875 -2.4219055 -0.65625q-1.875 -0.453125 -2.625 -0.859375q-0.96875 -0.515625 -1.453125 -1.265625q-0.46875 -0.75 -0.46875 -1.6875q0 -1.03125 0.578125 -1.921875q0.59375 -0.90625 1.703125 -1.359375q1.125 -0.46875 2.5 -0.46875q1.5156555 0 2.6719055 0.484375q1.15625 0.484375 1.765625 1.4375q0.625 0.9375 0.671875 2.140625l-1.71875 0.125q-0.140625 -1.28125 -0.953125 -1.9375q-0.796875 -0.671875 -2.3594055 -0.671875q-1.625 0 -2.375 0.609375q-0.75 0.59375 -0.75 1.4375q0 0.734375 0.53125 1.203125q0.515625 0.46875 2.703125 0.96875q2.2031555 0.5 3.0156555 0.875q1.1875 0.546875 1.75 1.390625q0.578125 0.828125 0.578125 1.921875q0 1.09375 -0.625 2.0625q-0.625 0.953125 -1.796875 1.484375q-1.15625 0.53125 -2.6094055 0.53125q-1.84375 0 -3.09375 -0.53125q-1.25 -0.546875 -1.96875 -1.625q-0.703125 -1.078125 -0.734375 -2.453125zm19.584229 1.203125l1.71875 0.21875q-0.40625 1.5 -1.515625 2.34375q-1.09375 0.828125 -2.8125 0.828125q-2.15625 0 -3.421875 -1.328125q-1.265625 -1.328125 -1.265625 -3.734375q0 -2.484375 1.265625 -3.859375q1.28125 -1.375 3.328125 -1.375q1.984375 0 3.234375 1.34375q1.25 1.34375 1.25 3.796875q0 0.140625 -0.015625 0.4375l-7.34375 0q0.09375 1.625 0.921875 2.484375q0.828125 0.859375 2.0625 0.859375q0.90625 0 1.546875 -0.46875q0.65625 -0.484375 1.046875 -1.546875zm-5.484375 -2.703125l5.5 0q-0.109375 -1.234375 -0.625 -1.859375q-0.796875 -0.96875 -2.078125 -0.96875q-1.140625 0 -1.9375 0.78125q-0.78125 0.765625 -0.859375 2.046875zm9.094452 5.875l0 -9.859375l1.5 0l0 1.5q0.578125 -1.046875 1.0625 -1.375q0.484375 -0.34375 1.078125 -0.34375q0.84375 0 1.71875 0.546875l-0.578125 1.546875q-0.609375 -0.359375 -1.234375 -0.359375q-0.546875 0 -0.984375 0.328125q-0.421875 0.328125 -0.609375 0.90625q-0.28125 0.890625 -0.28125 1.953125l0 5.15625l-1.671875 0zm8.962677 0l-3.75 -9.859375l1.765625 0l2.125 5.90625q0.34375 0.953125 0.625 1.984375q0.21875 -0.78125 0.625 -1.875l2.1875 -6.015625l1.71875 0l-3.734375 9.859375l-1.5625 0zm13.34375 -3.171875l1.71875 0.21875q-0.40625 1.5 -1.515625 2.34375q-1.09375 0.828125 -2.8125 0.828125q-2.15625 0 -3.421875 -1.328125q-1.265625 -1.328125 -1.265625 -3.734375q0 -2.484375 1.265625 -3.859375q1.28125 -1.375 3.328125 -1.375q1.984375 0 3.234375 1.34375q1.25 1.34375 1.25 3.796875q0 0.140625 -0.015625 0.4375l-7.34375 0q0.09375 1.625 0.921875 2.484375q0.828125 0.859375 2.0625 0.859375q0.90625 0 1.546875 -0.46875q0.65625 -0.484375 1.046875 -1.546875zm-5.484375 -2.703125l5.5 0q-0.109375 -1.234375 -0.625 -1.859375q-0.796875 -0.96875 -2.078125 -0.96875q-1.140625 0 -1.9375 0.78125q-0.78125 0.765625 -0.859375 2.046875zm9.094482 5.875l0 -9.859375l1.5 0l0 1.5q0.578125 -1.046875 1.0625 -1.375q0.484375 -0.34375 1.078125 -0.34375q0.84375 0 1.71875 0.546875l-0.578125 1.546875q-0.609375 -0.359375 -1.234375 -0.359375q-0.546875 0 -0.984375 0.328125q-0.421875 0.328125 -0.609375 0.90625q-0.28125 0.890625 -0.28125 1.953125l0 5.15625l-1.671875 0z" fill-rule="nonzero"></path><path fill="#cfe2f3" d="m274.2756 238.44l200.6614 0l0 85.63779l-200.6614 0z" fill-rule="nonzero"></path><path stroke="#000000" stroke-width="2.0" stroke-linejoin="round" stroke-linecap="butt" d="m274.2756 238.44l200.6614 0l0 85.63779l-200.6614 0z" fill-rule="nonzero"></path><path fill="#000000" d="m326.40817 288.1789l0 -13.59375l9.171875 0l0 1.59375l-7.375 0l0 4.21875l6.375 0l0 1.609375l-6.375 0l0 6.171875l-1.796875 0zm11.099121 -11.6875l0 -1.90625l1.671875 0l0 1.90625l-1.671875 0zm0 11.6875l0 -9.859375l1.671875 0l0 9.859375l-1.671875 0zm4.113556 0l0 -9.859375l1.5 0l0 1.5q0.578125 -1.046875 1.0625 -1.375q0.484375 -0.34375 1.078125 -0.34375q0.84375 0 1.71875 0.546875l-0.578125 1.546875q-0.609375 -0.359375 -1.234375 -0.359375q-0.546875 0 -0.984375 0.328125q-0.421875 0.328125 -0.609375 0.90625q-0.28125 0.890625 -0.28125 1.953125l0 5.15625l-1.671875 0zm12.978302 -3.171875l1.71875 0.21875q-0.40625 1.5 -1.515625 2.34375q-1.09375 0.828125 -2.8125 0.828125q-2.15625 0 -3.421875 -1.328125q-1.265625 -1.328125 -1.265625 -3.734375q0 -2.484375 1.265625 -3.859375q1.28125 -1.375 3.328125 -1.375q1.984375 0 3.234375 1.34375q1.25 1.34375 1.25 3.796875q0 0.140625 -0.015625 0.4375l-7.34375 0q0.09375 1.625 0.921875 2.484375q0.828125 0.859375 2.0625 0.859375q0.90625 0 1.546875 -0.46875q0.65625 -0.484375 1.046875 -1.546875zm-5.484375 -2.703125l5.5 0q-0.109375 -1.234375 -0.625 -1.859375q-0.796875 -0.96875 -2.078125 -0.96875q-1.140625 0 -1.9375 0.78125q-0.78125 0.765625 -0.859375 2.046875zm10.938232 5.875l-3.015625 -9.859375l1.71875 0l1.5625 5.6875l0.59375 2.125q0.03125 -0.15625 0.5 -2.03125l1.578125 -5.78125l1.71875 0l1.46875 5.71875l0.484375 1.890625l0.578125 -1.90625l1.6875 -5.703125l1.625 0l-3.078125 9.859375l-1.734375 0l-1.578125 -5.90625l-0.375 -1.671875l-2.0 7.578125l-1.734375 0zm18.082306 -1.21875q-0.9375 0.796875 -1.796875 1.125q-0.859375 0.3125 -1.84375 0.3125q-1.609375 0 -2.484375 -0.78125q-0.875 -0.796875 -0.875 -2.03125q0 -0.734375 0.328125 -1.328125q0.328125 -0.59375 0.859375 -0.953125q0.53125 -0.359375 1.203125 -0.546875q0.5 -0.140625 1.484375 -0.25q2.03125 -0.25 2.984375 -0.578125q0 -0.34375 0 -0.4375q0 -1.015625 -0.46875 -1.4375q-0.640625 -0.5625 -1.90625 -0.5625q-1.171875 0 -1.734375 0.40625q-0.5625 0.40625 -0.828125 1.46875l-1.640625 -0.234375q0.234375 -1.046875 0.734375 -1.6875q0.515625 -0.640625 1.46875 -0.984375q0.96875 -0.359375 2.25 -0.359375q1.265625 0 2.046875 0.296875q0.78125 0.296875 1.15625 0.75q0.375 0.453125 0.515625 1.140625q0.09375 0.421875 0.09375 1.53125l0 2.234375q0 2.328125 0.09375 2.953125q0.109375 0.609375 0.4375 1.171875l-1.75 0q-0.265625 -0.515625 -0.328125 -1.21875zm-0.140625 -3.71875q-0.90625 0.359375 -2.734375 0.625q-1.03125 0.140625 -1.453125 0.328125q-0.421875 0.1875 -0.65625 0.546875q-0.234375 0.359375 -0.234375 0.796875q0 0.671875 0.5 1.125q0.515625 0.4375 1.484375 0.4375q0.96875 0 1.71875 -0.421875q0.75 -0.4375 1.109375 -1.15625q0.265625 -0.578125 0.265625 -1.671875l0 -0.609375zm4.0476074 4.9375l0 -13.59375l1.671875 0l0 13.59375l-1.671875 0zm4.144806 0l0 -13.59375l1.671875 0l0 13.59375l-1.671875 0zm2.9260864 0.234375l3.9375 -14.0625l1.34375 0l-3.9375 14.0625l-1.34375 0zm6.9489136 -0.234375l0 -13.59375l1.8125 0l0 13.59375l-1.8125 0zm4.886444 0l0 -13.59375l5.125 0q1.359375 0 2.078125 0.125q1.0 0.171875 1.671875 0.640625q0.671875 0.46875 1.078125 1.3125q0.421875 0.84375 0.421875 1.84375q0 1.734375 -1.109375 2.9375q-1.09375 1.203125 -3.984375 1.203125l-3.484375 0l0 5.53125l-1.796875 0zm1.796875 -7.140625l3.515625 0q1.75 0 2.46875 -0.640625q0.734375 -0.65625 0.734375 -1.828125q0 -0.859375 -0.4375 -1.46875q-0.421875 -0.609375 -1.125 -0.796875q-0.453125 -0.125 -1.671875 -0.125l-3.484375 0l0 4.859375zm10.037323 2.765625l1.6875 -0.140625q0.125 1.015625 0.5625 1.671875q0.4375 0.65625 1.359375 1.0625q0.9375 0.40625 2.09375 0.40625q1.03125 0 1.8125 -0.3125q0.796875 -0.3125 1.1875 -0.84375q0.390625 -0.53125 0.390625 -1.15625q0 -0.640625 -0.375 -1.109375q-0.375 -0.484375 -1.234375 -0.8125q-0.546875 -0.21875 -2.421875 -0.65625q-1.875 -0.453125 -2.625 -0.859375q-0.96875 -0.515625 -1.453125 -1.265625q-0.46875 -0.75 -0.46875 -1.6875q0 -1.03125 0.578125 -1.921875q0.59375 -0.90625 1.703125 -1.359375q1.125 -0.46875 2.5 -0.46875q1.515625 0 2.671875 0.484375q1.15625 0.484375 1.765625 1.4375q0.625 0.9375 0.671875 2.140625l-1.71875 0.125q-0.140625 -1.28125 -0.953125 -1.9375q-0.796875 -0.671875 -2.359375 -0.671875q-1.625 0 -2.375 0.609375q-0.75 0.59375 -0.75 1.4375q0 0.734375 0.53125 1.203125q0.515625 0.46875 2.703125 0.96875q2.203125 0.5 3.015625 0.875q1.1875 0.546875 1.75 1.390625q0.578125 0.828125 0.578125 1.921875q0 1.09375 -0.625 2.0625q-0.625 0.953125 -1.796875 1.484375q-1.15625 0.53125 -2.609375 0.53125q-1.84375 0 -3.09375 -0.53125q-1.25 -0.546875 -1.96875 -1.625q-0.703125 -1.078125 -0.734375 -2.453125z" fill-rule="nonzero"></path><path fill="#cfe2f3" d="m513.9934 351.09485l200.66144 0l0 85.63782l-200.66144 0z" fill-rule="nonzero"></path><path stroke="#000000" stroke-width="2.0" stroke-linejoin="round" stroke-linecap="butt" d="m513.9934 351.09485l200.66144 0l0 85.63782l-200.66144 0z" fill-rule="nonzero"></path><path fill="#000000" d="m566.12604 400.83374l0 -13.59375l9.171875 0l0 1.59375l-7.375 0l0 4.21875l6.375 0l0 1.609375l-6.375 0l0 6.171875l-1.796875 0zm11.09906 -11.6875l0 -1.90625l1.671875 0l0 1.90625l-1.671875 0zm0 11.6875l0 -9.859375l1.671875 0l0 9.859375l-1.671875 0zm4.1135864 0l0 -9.859375l1.5 0l0 1.5q0.578125 -1.046875 1.0625 -1.375q0.484375 -0.34375 1.078125 -0.34375q0.84375 0 1.71875 0.546875l-0.578125 1.546875q-0.609375 -0.359375 -1.234375 -0.359375q-0.546875 0 -0.984375 0.328125q-0.421875 0.328125 -0.609375 0.90625q-0.28125 0.890625 -0.28125 1.953125l0 5.15625l-1.671875 0zm12.9783325 -3.171875l1.71875 0.21875q-0.40625 1.5 -1.515625 2.34375q-1.09375 0.828125 -2.8125 0.828125q-2.15625 0 -3.421875 -1.328125q-1.265625 -1.328125 -1.265625 -3.734375q0 -2.484375 1.265625 -3.859375q1.28125 -1.375 3.328125 -1.375q1.984375 0 3.234375 1.34375q1.25 1.34375 1.25 3.796875q0 0.140625 -0.015625 0.4375l-7.34375 0q0.09375 1.625 0.921875 2.484375q0.828125 0.859375 2.0625 0.859375q0.90625 0 1.546875 -0.46875q0.65625 -0.484375 1.046875 -1.546875zm-5.484375 -2.703125l5.5 0q-0.109375 -1.234375 -0.625 -1.859375q-0.796875 -0.96875 -2.078125 -0.96875q-1.140625 0 -1.9375 0.78125q-0.78125 0.765625 -0.859375 2.046875zm10.938171 5.875l-3.015625 -9.859375l1.71875 0l1.5625 5.6875l0.59375 2.125q0.03125 -0.15625 0.5 -2.03125l1.578125 -5.78125l1.71875 0l1.46875 5.71875l0.484375 1.890625l0.578125 -1.90625l1.6875 -5.703125l1.625 0l-3.078125 9.859375l-1.734375 0l-1.578125 -5.90625l-0.375 -1.671875l-2.0 7.578125l-1.734375 0zm18.082336 -1.21875q-0.9375 0.796875 -1.796875 1.125q-0.859375 0.3125 -1.84375 0.3125q-1.609375 0 -2.484375 -0.78125q-0.875 -0.796875 -0.875 -2.03125q0 -0.734375 0.328125 -1.328125q0.328125 -0.59375 0.859375 -0.953125q0.53125 -0.359375 1.203125 -0.546875q0.5 -0.140625 1.484375 -0.25q2.03125 -0.25 2.984375 -0.578125q0 -0.34375 0 -0.4375q0 -1.015625 -0.46875 -1.4375q-0.640625 -0.5625 -1.90625 -0.5625q-1.171875 0 -1.734375 0.40625q-0.5625 0.40625 -0.828125 1.46875l-1.640625 -0.234375q0.234375 -1.046875 0.734375 -1.6875q0.515625 -0.640625 1.46875 -0.984375q0.96875 -0.359375 2.25 -0.359375q1.265625 0 2.046875 0.296875q0.78125 0.296875 1.15625 0.75q0.375 0.453125 0.515625 1.140625q0.09375 0.421875 0.09375 1.53125l0 2.234375q0 2.328125 0.09375 2.953125q0.109375 0.609375 0.4375 1.171875l-1.75 0q-0.265625 -0.515625 -0.328125 -1.21875zm-0.140625 -3.71875q-0.90625 0.359375 -2.734375 0.625q-1.03125 0.140625 -1.453125 0.328125q-0.421875 0.1875 -0.65625 0.546875q-0.234375 0.359375 -0.234375 0.796875q0 0.671875 0.5 1.125q0.515625 0.4375 1.484375 0.4375q0.96875 0 1.71875 -0.421875q0.75 -0.4375 1.109375 -1.15625q0.265625 -0.578125 0.265625 -1.671875l0 -0.609375zm4.0476074 4.9375l0 -13.59375l1.671875 0l0 13.59375l-1.671875 0zm4.1448364 0l0 -13.59375l1.671875 0l0 13.59375l-1.671875 0zm2.9260254 0.234375l3.9375 -14.0625l1.34375 0l-3.9375 14.0625l-1.34375 0zm6.9489746 -0.234375l0 -13.59375l1.8125 0l0 13.59375l-1.8125 0zm4.8864136 0l0 -13.59375l5.125 0q1.359375 0 2.078125 0.125q1.0 0.171875 1.671875 0.640625q0.671875 0.46875 1.078125 1.3125q0.421875 0.84375 0.421875 1.84375q0 1.734375 -1.109375 2.9375q-1.09375 1.203125 -3.984375 1.203125l-3.484375 0l0 5.53125l-1.796875 0zm1.796875 -7.140625l3.515625 0q1.75 0 2.46875 -0.640625q0.734375 -0.65625 0.734375 -1.828125q0 -0.859375 -0.4375 -1.46875q-0.421875 -0.609375 -1.125 -0.796875q-0.453125 -0.125 -1.671875 -0.125l-3.484375 0l0 4.859375zm10.0372925 2.765625l1.6875 -0.140625q0.125 1.015625 0.5625 1.671875q0.4375 0.65625 1.359375 1.0625q0.9375 0.40625 2.09375 0.40625q1.03125 0 1.8125 -0.3125q0.796875 -0.3125 1.1875 -0.84375q0.390625 -0.53125 0.390625 -1.15625q0 -0.640625 -0.375 -1.109375q-0.375 -0.484375 -1.234375 -0.8125q-0.546875 -0.21875 -2.421875 -0.65625q-1.875 -0.453125 -2.625 -0.859375q-0.96875 -0.515625 -1.453125 -1.265625q-0.46875 -0.75 -0.46875 -1.6875q0 -1.03125 0.578125 -1.921875q0.59375 -0.90625 1.703125 -1.359375q1.125 -0.46875 2.5 -0.46875q1.515625 0 2.671875 0.484375q1.15625 0.484375 1.765625 1.4375q0.625 0.9375 0.671875 2.140625l-1.71875 0.125q-0.140625 -1.28125 -0.953125 -1.9375q-0.796875 -0.671875 -2.359375 -0.671875q-1.625 0 -2.375 0.609375q-0.75 0.59375 -0.75 1.4375q0 0.734375 0.53125 1.203125q0.515625 0.46875 2.703125 0.96875q2.203125 0.5 3.015625 0.875q1.1875 0.546875 1.75 1.390625q0.578125 0.828125 0.578125 1.921875q0 1.09375 -0.625 2.0625q-0.625 0.953125 -1.796875 1.484375q-1.15625 0.53125 -2.609375 0.53125q-1.84375 0 -3.09375 -0.53125q-1.25 -0.546875 -1.96875 -1.625q-0.703125 -1.078125 -0.734375 -2.453125z" fill-rule="nonzero"></path><path fill="#000000" fill-opacity="0.0" d="m614.32416 436.73267l-139.38715 55.757202" fill-rule="nonzero"></path><path stroke="#000000" stroke-width="2.0" stroke-linejoin="round" stroke-linecap="butt" d="m614.32416 436.73267l-139.38715 55.757202" fill-rule="nonzero"></path><path fill="#000000" fill-opacity="0.0" d="m474.937 393.91376l39.056396 0" fill-rule="nonzero"></path><path stroke="#000000" stroke-width="2.0" stroke-linejoin="round" stroke-linecap="butt" d="m474.937 393.91376l39.056396 0" fill-rule="nonzero"></path><path fill="#000000" fill-opacity="0.0" d="m375.99997 172.42682l-1.3936768 66.01318" fill-rule="nonzero"></path><path stroke="#000000" stroke-width="2.0" stroke-linejoin="round" stroke-linecap="butt" d="m376.0 172.42682l-1.1404114 54.015854" fill-rule="evenodd"></path><path fill="#000000" stroke="#000000" stroke-width="2.0" stroke-linecap="butt" d="m371.55685 226.37294l3.111145 9.143906l3.4943237 -9.00444z" fill-rule="evenodd"></path><path fill="#000000" fill-opacity="0.0" d="m374.6063 324.0778l0 27.01706" fill-rule="nonzero"></path><path stroke="#000000" stroke-width="2.0" stroke-linejoin="round" stroke-linecap="butt" d="m374.6063 324.0778l0 15.017059" fill-rule="evenodd"></path><path fill="#000000" stroke="#000000" stroke-width="2.0" stroke-linecap="butt" d="m371.30283 339.09485l3.3034668 9.076202l3.3034668 -9.076202z" fill-rule="evenodd"></path><path fill="#000000" fill-opacity="0.0" d="m614.32416 458.3639l0 -21.631226" fill-rule="nonzero"></path><path stroke="#000000" stroke-width="2.0" stroke-linejoin="round" stroke-linecap="butt" d="m614.32416 458.3639l0 -21.631226" fill-rule="nonzero"></path><path fill="#cfe2f3" d="m513.9934 238.44131l200.66144 0l0 85.63779l-200.66144 0z" fill-rule="nonzero"></path><path stroke="#000000" stroke-width="2.0" stroke-linejoin="round" stroke-linecap="butt" d="m513.9934 238.44131l200.66144 0l0 85.63779l-200.66144 0z" fill-rule="nonzero"></path><path fill="#000000" d="m544.8781 288.1802l0 -13.59375l9.171875 0l0 1.59375l-7.375 0l0 4.21875l6.375 0l0 1.609375l-6.375 0l0 6.171875l-1.796875 0zm11.099121 -11.6875l0 -1.90625l1.671875 0l0 1.90625l-1.671875 0zm0 11.6875l0 -9.859375l1.671875 0l0 9.859375l-1.671875 0zm4.1135864 0l0 -9.859375l1.5 0l0 1.5q0.578125 -1.046875 1.0625 -1.375q0.484375 -0.34375 1.078125 -0.34375q0.84375 0 1.71875 0.546875l-0.578125 1.546875q-0.609375 -0.359375 -1.234375 -0.359375q-0.546875 0 -0.984375 0.328125q-0.421875 0.328125 -0.609375 0.90625q-0.28125 0.890625 -0.28125 1.953125l0 5.15625l-1.671875 0zm12.9782715 -3.171875l1.71875 0.21875q-0.40625 1.5 -1.515625 2.34375q-1.09375 0.828125 -2.8125 0.828125q-2.15625 0 -3.421875 -1.328125q-1.265625 -1.328125 -1.265625 -3.734375q0 -2.484375 1.265625 -3.859375q1.28125 -1.375 3.328125 -1.375q1.984375 0 3.234375 1.34375q1.25 1.34375 1.25 3.796875q0 0.140625 -0.015625 0.4375l-7.34375 0q0.09375 1.625 0.921875 2.484375q0.828125 0.859375 2.0625 0.859375q0.90625 0 1.546875 -0.46875q0.65625 -0.484375 1.046875 -1.546875zm-5.484375 -2.703125l5.5 0q-0.109375 -1.234375 -0.625 -1.859375q-0.796875 -0.96875 -2.078125 -0.96875q-1.140625 0 -1.9375 0.78125q-0.78125 0.765625 -0.859375 2.046875zm10.938232 5.875l-3.015625 -9.859375l1.71875 0l1.5625 5.6875l0.59375 2.125q0.03125 -0.15625 0.5 -2.03125l1.578125 -5.78125l1.71875 0l1.46875 5.71875l0.484375 1.890625l0.578125 -1.90625l1.6875 -5.703125l1.625 0l-3.078125 9.859375l-1.734375 0l-1.578125 -5.90625l-0.375 -1.671875l-2.0 7.578125l-1.734375 0zm18.082336 -1.21875q-0.9375 0.796875 -1.796875 1.125q-0.859375 0.3125 -1.84375 0.3125q-1.609375 0 -2.484375 -0.78125q-0.875 -0.796875 -0.875 -2.03125q0 -0.734375 0.328125 -1.328125q0.328125 -0.59375 0.859375 -0.953125q0.53125 -0.359375 1.203125 -0.546875q0.5 -0.140625 1.484375 -0.25q2.03125 -0.25 2.984375 -0.578125q0 -0.34375 0 -0.4375q0 -1.015625 -0.46875 -1.4375q-0.640625 -0.5625 -1.90625 -0.5625q-1.171875 0 -1.734375 0.40625q-0.5625 0.40625 -0.828125 1.46875l-1.640625 -0.234375q0.234375 -1.046875 0.734375 -1.6875q0.515625 -0.640625 1.46875 -0.984375q0.96875 -0.359375 2.25 -0.359375q1.265625 0 2.046875 0.296875q0.78125 0.296875 1.15625 0.75q0.375 0.453125 0.515625 1.140625q0.09375 0.421875 0.09375 1.53125l0 2.234375q0 2.328125 0.09375 2.953125q0.109375 0.609375 0.4375 1.171875l-1.75 0q-0.265625 -0.515625 -0.328125 -1.21875zm-0.140625 -3.71875q-0.90625 0.359375 -2.734375 0.625q-1.03125 0.140625 -1.453125 0.328125q-0.421875 0.1875 -0.65625 0.546875q-0.234375 0.359375 -0.234375 0.796875q0 0.671875 0.5 1.125q0.515625 0.4375 1.484375 0.4375q0.96875 0 1.71875 -0.421875q0.75 -0.4375 1.109375 -1.15625q0.265625 -0.578125 0.265625 -1.671875l0 -0.609375zm4.0475464 4.9375l0 -13.59375l1.671875 0l0 13.59375l-1.671875 0zm4.1448364 0l0 -13.59375l1.671875 0l0 13.59375l-1.671875 0zm2.9260864 0.234375l3.9375 -14.0625l1.34375 0l-3.9375 14.0625l-1.34375 0zm6.6364136 -0.234375l0 -13.59375l1.84375 0l7.140625 10.671875l0 -10.671875l1.71875 0l0 13.59375l-1.84375 0l-7.140625 -10.6875l0 10.6875l-1.71875 0zm11.988586 0l5.234375 -13.59375l1.9375 0l5.5625 13.59375l-2.046875 0l-1.59375 -4.125l-5.6875 0l-1.484375 4.125l-1.921875 0zm3.921875 -5.578125l4.609375 0l-1.40625 -3.78125q-0.65625 -1.703125 -0.96875 -2.8125q-0.265625 1.3125 -0.734375 2.59375l-1.5 4.0zm13.4747925 5.578125l0 -12.0l-4.46875 0l0 -1.59375l10.765625 0l0 1.59375l-4.5 0l0 12.0l-1.796875 0zm6.474121 0.234375l3.9375 -14.0625l1.34375 0l-3.9375 14.0625l-1.34375 0zm6.9489136 -0.234375l0 -13.59375l1.8125 0l0 13.59375l-1.8125 0zm4.8864136 0l0 -13.59375l5.125 0q1.359375 0 2.078125 0.125q1.0 0.171875 1.671875 0.640625q0.671875 0.46875 1.078125 1.3125q0.421875 0.84375 0.421875 1.84375q0 1.734375 -1.109375 2.9375q-1.09375 1.203125 -3.984375 1.203125l-3.484375 0l0 5.53125l-1.796875 0zm1.796875 -7.140625l3.515625 0q1.75 0 2.46875 -0.640625q0.734375 -0.65625 0.734375 -1.828125q0 -0.859375 -0.4375 -1.46875q-0.421875 -0.609375 -1.125 -0.796875q-0.453125 -0.125 -1.671875 -0.125l-3.484375 0l0 4.859375zm10.0373535 2.765625l1.6875 -0.140625q0.125 1.015625 0.5625 1.671875q0.4375 0.65625 1.359375 1.0625q0.9375 0.40625 2.09375 0.40625q1.03125 0 1.8125 -0.3125q0.796875 -0.3125 1.1875 -0.84375q0.390625 -0.53125 0.390625 -1.15625q0 -0.640625 -0.375 -1.109375q-0.375 -0.484375 -1.234375 -0.8125q-0.546875 -0.21875 -2.421875 -0.65625q-1.875 -0.453125 -2.625 -0.859375q-0.96875 -0.515625 -1.453125 -1.265625q-0.46875 -0.75 -0.46875 -1.6875q0 -1.03125 0.578125 -1.921875q0.59375 -0.90625 1.703125 -1.359375q1.125 -0.46875 2.5 -0.46875q1.515625 0 2.671875 0.484375q1.15625 0.484375 1.765625 1.4375q0.625 0.9375 0.671875 2.140625l-1.71875 0.125q-0.140625 -1.28125 -0.953125 -1.9375q-0.796875 -0.671875 -2.359375 -0.671875q-1.625 0 -2.375 0.609375q-0.75 0.59375 -0.75 1.4375q0 0.734375 0.53125 1.203125q0.515625 0.46875 2.703125 0.96875q2.203125 0.5 3.015625 0.875q1.1875 0.546875 1.75 1.390625q0.578125 0.828125 0.578125 1.921875q0 1.09375 -0.625 2.0625q-0.625 0.953125 -1.796875 1.484375q-1.15625 0.53125 -2.609375 0.53125q-1.84375 0 -3.09375 -0.53125q-1.25 -0.546875 -1.96875 -1.625q-0.703125 -1.078125 -0.734375 -2.453125z" fill-rule="nonzero"></path><path fill="#cfe2f3" d="m515.105 97.06205l200.66144 0l0 85.637794l-200.66144 0z" fill-rule="nonzero"></path><path stroke="#000000" stroke-width="2.0" stroke-linejoin="round" stroke-linecap="butt" d="m515.105 97.06205l200.66144 0l0 85.637794l-200.66144 0z" fill-rule="nonzero"></path><path fill="#000000" d="m526.73 117.18095l-2.46875 -9.3125l1.265625 0l1.421875 6.109375q0.21875 0.953125 0.390625 1.90625q0.359375 -1.5 0.421875 -1.71875l1.765625 -6.296875l1.484375 0l1.328125 4.71875q0.5 1.75 0.734375 3.296875q0.171875 -0.890625 0.453125 -2.03125l1.46875 -5.984375l1.234375 0l-2.546875 9.3125l-1.1875 0l-1.96875 -7.09375q-0.25 -0.890625 -0.296875 -1.09375q-0.140625 0.640625 -0.265625 1.09375l-1.96875 7.09375l-1.265625 0zm10.814087 0l0 -9.3125l1.140625 0l0 3.34375q0.796875 -0.921875 2.015625 -0.921875q0.75 0 1.296875 0.296875q0.5625 0.296875 0.796875 0.8125q0.234375 0.515625 0.234375 1.515625l0 4.265625l-1.140625 0l0 -4.265625q0 -0.859375 -0.375 -1.25q-0.359375 -0.390625 -1.046875 -0.390625q-0.5 0 -0.953125 0.265625q-0.453125 0.25 -0.640625 0.703125q-0.1875 0.453125 -0.1875 1.25l0 3.6875l-1.140625 0zm7.4124756 -7.984375l0 -1.328125l1.140625 0l0 1.328125l-1.140625 0zm0 7.984375l0 -6.734375l1.140625 0l0 6.734375l-1.140625 0zm5.4611206 -1.015625l0.15625 1.0q-0.484375 0.109375 -0.859375 0.109375q-0.625 0 -0.96875 -0.203125q-0.34375 -0.203125 -0.484375 -0.515625q-0.140625 -0.328125 -0.140625 -1.34375l0 -3.890625l-0.828125 0l0 -0.875l0.828125 0l0 -1.671875l1.140625 -0.6875l0 2.359375l1.15625 0l0 0.875l-1.15625 0l0 3.953125q0 0.484375 0.0625 0.625q0.0625 0.140625 0.1875 0.21875q0.140625 0.078125 0.390625 0.078125q0.203125 0 0.515625 -0.03125zm5.812378 -1.15625l1.1875 0.140625q-0.28125 1.046875 -1.046875 1.625q-0.75 0.5625 -1.921875 0.5625q-1.484375 0 -2.359375 -0.90625q-0.859375 -0.921875 -0.859375 -2.5625q0 -1.703125 0.875 -2.640625q0.890625 -0.9375 2.28125 -0.9375q1.359375 0 2.203125 0.921875q0.859375 0.921875 0.859375 2.578125q0 0.109375 0 0.3125l-5.03125 0q0.0625 1.109375 0.625 1.703125q0.5625 0.59375 1.40625 0.59375q0.640625 0 1.078125 -0.328125q0.453125 -0.34375 0.703125 -1.0625zm-3.75 -1.84375l3.765625 0q-0.078125 -0.859375 -0.4375 -1.28125q-0.546875 -0.65625 -1.40625 -0.65625q-0.796875 0 -1.328125 0.53125q-0.53125 0.515625 -0.59375 1.40625zm6.5218506 4.015625l0 -9.3125l1.140625 0l0 9.3125l-1.140625 0zm2.9923096 -7.984375l0 -1.328125l1.140625 0l0 1.328125l-1.140625 0zm0 7.984375l0 -6.734375l1.140625 0l0 6.734375l-1.140625 0zm2.5079956 -2.015625l1.125 -0.171875q0.09375 0.671875 0.53125 1.046875q0.4375 0.359375 1.21875 0.359375q0.78125 0 1.15625 -0.3125q0.390625 -0.328125 0.390625 -0.765625q0 -0.390625 -0.34375 -0.609375q-0.234375 -0.15625 -1.171875 -0.390625q-1.25 -0.3125 -1.734375 -0.546875q-0.484375 -0.234375 -0.734375 -0.640625q-0.25 -0.40625 -0.25 -0.90625q0 -0.453125 0.203125 -0.828125q0.203125 -0.390625 0.5625 -0.640625q0.265625 -0.203125 0.71875 -0.328125q0.46875 -0.140625 1.0 -0.140625q0.78125 0 1.375 0.234375q0.609375 0.21875 0.890625 0.609375q0.296875 0.390625 0.40625 1.046875l-1.125 0.15625q-0.078125 -0.53125 -0.4375 -0.8125q-0.359375 -0.296875 -1.03125 -0.296875q-0.78125 0 -1.125 0.265625q-0.34375 0.25 -0.34375 0.609375q0 0.21875 0.140625 0.390625q0.140625 0.1875 0.4375 0.3125q0.171875 0.0625 1.015625 0.28125q1.21875 0.328125 1.6875 0.53125q0.484375 0.203125 0.75 0.609375q0.28125 0.390625 0.28125 0.96875q0 0.578125 -0.34375 1.078125q-0.328125 0.5 -0.953125 0.78125q-0.625 0.28125 -1.421875 0.28125q-1.3125 0 -2.0 -0.546875q-0.6875 -0.546875 -0.875 -1.625zm9.6171875 1.0l0.15625 1.0q-0.484375 0.109375 -0.859375 0.109375q-0.625 0 -0.96875 -0.203125q-0.34375 -0.203125 -0.484375 -0.515625q-0.140625 -0.328125 -0.140625 -1.34375l0 -3.890625l-0.828125 0l0 -0.875l0.828125 0l0 -1.671875l1.140625 -0.6875l0 2.359375l1.15625 0l0 0.875l-1.15625 0l0 3.953125q0 0.484375 0.0625 0.625q0.0625 0.140625 0.1875 0.21875q0.140625 0.078125 0.390625 0.078125q0.203125 0 0.515625 -0.03125zm5.812317 -1.15625l1.1875 0.140625q-0.28125 1.046875 -1.046875 1.625q-0.75 0.5625 -1.921875 0.5625q-1.484375 0 -2.359375 -0.90625q-0.859375 -0.921875 -0.859375 -2.5625q0 -1.703125 0.875 -2.640625q0.890625 -0.9375 2.28125 -0.9375q1.359375 0 2.203125 0.921875q0.859375 0.921875 0.859375 2.578125q0 0.109375 0 0.3125l-5.03125 0q0.0625 1.109375 0.625 1.703125q0.5625 0.59375 1.40625 0.59375q0.640625 0 1.078125 -0.328125q0.453125 -0.34375 0.703125 -1.0625zm-3.75 -1.84375l3.765625 0q-0.078125 -0.859375 -0.4375 -1.28125q-0.546875 -0.65625 -1.40625 -0.65625q-0.796875 0 -1.328125 0.53125q-0.53125 0.515625 -0.59375 1.40625zm10.928101 4.015625l0 -0.84375q-0.640625 1.0 -1.890625 1.0q-0.796875 0 -1.484375 -0.4375q-0.671875 -0.453125 -1.046875 -1.25q-0.375 -0.796875 -0.375 -1.828125q0 -1.015625 0.34375 -1.828125q0.34375 -0.828125 1.015625 -1.265625q0.671875 -0.4375 1.5 -0.4375q0.609375 0 1.078125 0.265625q0.484375 0.25 0.78125 0.65625l0 -3.34375l1.140625 0l0 9.3125l-1.0625 0zm-3.609375 -3.359375q0 1.296875 0.53125 1.9375q0.546875 0.640625 1.296875 0.640625q0.75 0 1.265625 -0.609375q0.53125 -0.625 0.53125 -1.875q0 -1.390625 -0.53125 -2.03125q-0.53125 -0.65625 -1.3125 -0.65625q-0.765625 0 -1.28125 0.625q-0.5 0.625 -0.5 1.96875zm10.7092285 3.359375l0 -9.3125l1.21875 0l0 9.3125l-1.21875 0zm3.484253 0l0 -9.3125l3.515625 0q0.921875 0 1.40625 0.09375q0.6875 0.109375 1.15625 0.4375q0.46875 0.3125 0.75 0.890625q0.28125 0.578125 0.28125 1.28125q0 1.1875 -0.765625 2.015625q-0.75 0.8125 -2.71875 0.8125l-2.390625 0l0 3.78125l-1.234375 0zm1.234375 -4.875l2.40625 0q1.1875 0 1.6875 -0.4375q0.515625 -0.453125 0.515625 -1.265625q0 -0.578125 -0.296875 -0.984375q-0.296875 -0.421875 -0.78125 -0.5625q-0.3125 -0.078125 -1.15625 -0.078125l-2.375 0l0 3.328125zm7.0616455 2.859375l1.125 -0.171875q0.09375 0.671875 0.53125 1.046875q0.4375 0.359375 1.21875 0.359375q0.78125 0 1.15625 -0.3125q0.390625 -0.328125 0.390625 -0.765625q0 -0.390625 -0.34375 -0.609375q-0.234375 -0.15625 -1.171875 -0.390625q-1.25 -0.3125 -1.734375 -0.546875q-0.484375 -0.234375 -0.734375 -0.640625q-0.25 -0.40625 -0.25 -0.90625q0 -0.453125 0.203125 -0.828125q0.203125 -0.390625 0.5625 -0.640625q0.265625 -0.203125 0.71875 -0.328125q0.46875 -0.140625 1.0 -0.140625q0.78125 0 1.375 0.234375q0.609375 0.21875 0.890625 0.609375q0.296875 0.390625 0.40625 1.046875l-1.125 0.15625q-0.078125 -0.53125 -0.4375 -0.8125q-0.359375 -0.296875 -1.03125 -0.296875q-0.78125 0 -1.125 0.265625q-0.34375 0.25 -0.34375 0.609375q0 0.21875 0.140625 0.390625q0.140625 0.1875 0.4375 0.3125q0.171875 0.0625 1.015625 0.28125q1.21875 0.328125 1.6875 0.53125q0.484375 0.203125 0.75 0.609375q0.28125 0.390625 0.28125 0.96875q0 0.578125 -0.34375 1.078125q-0.328125 0.5 -0.953125 0.78125q-0.625 0.28125 -1.421875 0.28125q-1.3125 0 -2.0 -0.546875q-0.6875 -0.546875 -0.875 -1.625zm7.4140625 2.015625l0 -1.296875l1.296875 0l0 1.296875q0 0.71875 -0.25 1.15625q-0.25 0.4375 -0.8125 0.6875l-0.3125 -0.484375q0.359375 -0.171875 0.53125 -0.484375q0.171875 -0.296875 0.1875 -0.875l-0.640625 0zm7.249695 0l0 -9.3125l3.515625 0q0.921875 0 1.40625 0.09375q0.6875 0.109375 1.15625 0.4375q0.46875 0.3125 0.75 0.890625q0.28125 0.578125 0.28125 1.28125q0 1.1875 -0.765625 2.015625q-0.75 0.8125 -2.71875 0.8125l-2.390625 0l0 3.78125l-1.234375 0zm1.234375 -4.875l2.40625 0q1.1875 0 1.6875 -0.4375q0.515625 -0.453125 0.515625 -1.265625q0 -0.578125 -0.296875 -0.984375q-0.296875 -0.421875 -0.78125 -0.5625q-0.3125 -0.078125 -1.15625 -0.078125l-2.375 0l0 3.328125zm7.0928955 1.5q0 -1.875 1.03125 -2.765625q0.875 -0.75 2.125 -0.75q1.390625 0 2.265625 0.90625q0.890625 0.90625 0.890625 2.515625q0 1.296875 -0.390625 2.046875q-0.390625 0.75 -1.140625 1.171875q-0.75 0.40625 -1.625 0.40625q-1.421875 0 -2.296875 -0.90625q-0.859375 -0.90625 -0.859375 -2.625zm1.171875 0q0 1.296875 0.5625 1.953125q0.5625 0.640625 1.421875 0.640625q0.84375 0 1.40625 -0.640625q0.578125 -0.65625 0.578125 -1.984375q0 -1.25 -0.578125 -1.890625q-0.5625 -0.65625 -1.40625 -0.65625q-0.859375 0 -1.421875 0.640625q-0.5625 0.640625 -0.5625 1.9375zm6.6468506 3.375l0 -6.734375l1.03125 0l0 1.015625q0.390625 -0.71875 0.71875 -0.9375q0.34375 -0.234375 0.734375 -0.234375q0.578125 0 1.171875 0.359375l-0.390625 1.0625q-0.421875 -0.25 -0.828125 -0.25q-0.375 0 -0.6875 0.234375q-0.296875 0.21875 -0.421875 0.625q-0.1875 0.609375 -0.1875 1.328125l0 3.53125l-1.140625 0zm6.9539795 -1.015625l0.15625 1.0q-0.484375 0.109375 -0.859375 0.109375q-0.625 0 -0.96875 -0.203125q-0.34375 -0.203125 -0.484375 -0.515625q-0.140625 -0.328125 -0.140625 -1.34375l0 -3.890625l-0.828125 0l0 -0.875l0.828125 0l0 -1.671875l1.140625 -0.6875l0 2.359375l1.15625 0l0 0.875l-1.15625 0l0 3.953125q0 0.484375 0.0625 0.625q0.0625 0.140625 0.1875 0.21875q0.140625 0.078125 0.390625 0.078125q0.203125 0 0.515625 -0.03125zm0.7498779 -1.0l1.125 -0.171875q0.09375 0.671875 0.53125 1.046875q0.4375 0.359375 1.21875 0.359375q0.78125 0 1.15625 -0.3125q0.390625 -0.328125 0.390625 -0.765625q0 -0.390625 -0.34375 -0.609375q-0.234375 -0.15625 -1.171875 -0.390625q-1.25 -0.3125 -1.734375 -0.546875q-0.484375 -0.234375 -0.734375 -0.640625q-0.25 -0.40625 -0.25 -0.90625q0 -0.453125 0.203125 -0.828125q0.203125 -0.390625 0.5625 -0.640625q0.265625 -0.203125 0.71875 -0.328125q0.46875 -0.140625 1.0 -0.140625q0.78125 0 1.375 0.234375q0.609375 0.21875 0.890625 0.609375q0.296875 0.390625 0.40625 1.046875l-1.125 0.15625q-0.078125 -0.53125 -0.4375 -0.8125q-0.359375 -0.296875 -1.03125 -0.296875q-0.78125 0 -1.125 0.265625q-0.34375 0.25 -0.34375 0.609375q0 0.21875 0.140625 0.390625q0.140625 0.1875 0.4375 0.3125q0.171875 0.0625 1.015625 0.28125q1.21875 0.328125 1.6875 0.53125q0.484375 0.203125 0.75 0.609375q0.28125 0.390625 0.28125 0.96875q0 0.578125 -0.34375 1.078125q-0.328125 0.5 -0.953125 0.78125q-0.625 0.28125 -1.421875 0.28125q-1.3125 0 -2.0 -0.546875q-0.6875 -0.546875 -0.875 -1.625zm15.210815 1.1875q-0.625 0.53125 -1.21875 0.765625q-0.578125 0.21875 -1.25 0.21875q-1.125 0 -1.71875 -0.546875q-0.59375 -0.546875 -0.59375 -1.390625q0 -0.484375 0.21875 -0.890625q0.234375 -0.421875 0.59375 -0.671875q0.375 -0.25 0.828125 -0.375q0.328125 -0.078125 1.015625 -0.171875q1.375 -0.15625 2.03125 -0.390625q0.015625 -0.234375 0.015625 -0.296875q0 -0.703125 -0.328125 -0.984375q-0.4375 -0.390625 -1.296875 -0.390625q-0.8125 0 -1.203125 0.28125q-0.375 0.28125 -0.5625 1.0l-1.109375 -0.140625q0.140625 -0.71875 0.484375 -1.15625q0.359375 -0.453125 1.015625 -0.6875q0.671875 -0.234375 1.53125 -0.234375q0.875 0 1.40625 0.203125q0.546875 0.203125 0.796875 0.515625q0.25 0.296875 0.359375 0.765625q0.046875 0.296875 0.046875 1.0625l0 1.515625q0 1.59375 0.078125 2.015625q0.078125 0.421875 0.28125 0.8125l-1.1875 0q-0.171875 -0.359375 -0.234375 -0.828125zm-0.09375 -2.5625q-0.625 0.265625 -1.859375 0.4375q-0.703125 0.109375 -1.0 0.234375q-0.296875 0.125 -0.453125 0.375q-0.15625 0.234375 -0.15625 0.53125q0 0.453125 0.34375 0.765625q0.34375 0.296875 1.015625 0.296875q0.65625 0 1.171875 -0.28125q0.515625 -0.296875 0.765625 -0.796875q0.171875 -0.375 0.171875 -1.140625l0 -0.421875zm3.1156006 3.390625l0 -6.734375l1.03125 0l0 0.953125q0.734375 -1.109375 2.140625 -1.109375q0.609375 0 1.109375 0.21875q0.515625 0.21875 0.765625 0.578125q0.265625 0.34375 0.359375 0.84375q0.0625 0.3125 0.0625 1.109375l0 4.140625l-1.140625 0l0 -4.09375q0 -0.703125 -0.140625 -1.046875q-0.125 -0.34375 -0.46875 -0.546875q-0.328125 -0.21875 -0.78125 -0.21875q-0.734375 0 -1.265625 0.46875q-0.53125 0.453125 -0.53125 1.75l0 3.6875l-1.140625 0zm11.787476 0l0 -0.84375q-0.640625 1.0 -1.890625 1.0q-0.796875 0 -1.484375 -0.4375q-0.671875 -0.453125 -1.046875 -1.25q-0.375 -0.796875 -0.375 -1.828125q0 -1.015625 0.34375 -1.828125q0.34375 -0.828125 1.015625 -1.265625q0.671875 -0.4375 1.5 -0.4375q0.609375 0 1.078125 0.265625q0.484375 0.25 0.78125 0.65625l0 -3.34375l1.140625 0l0 9.3125l-1.0625 0zm-3.609375 -3.359375q0 1.296875 0.53125 1.9375q0.546875 0.640625 1.296875 0.640625q0.75 0 1.265625 -0.609375q0.53125 -0.625 0.53125 -1.875q0 -1.390625 -0.53125 -2.03125q-0.53125 -0.65625 -1.3125 -0.65625q-0.765625 0 -1.28125 0.625q-0.5 0.625 -0.5 1.96875z" fill-rule="nonzero"></path><path fill="#000000" d="m524.6831 130.19656l1.171875 -0.109375q0.078125 0.703125 0.375 1.15625q0.3125 0.4375 0.9375 0.71875q0.640625 0.265625 1.4375 0.265625q0.703125 0 1.234375 -0.203125q0.546875 -0.203125 0.8125 -0.5625q0.265625 -0.375 0.265625 -0.8125q0 -0.4375 -0.265625 -0.765625q-0.25 -0.328125 -0.828125 -0.546875q-0.375 -0.140625 -1.65625 -0.453125q-1.28125 -0.3125 -1.796875 -0.578125q-0.671875 -0.34374237 -1.0 -0.8593674q-0.328125 -0.53125 -0.328125 -1.171875q0 -0.703125 0.390625 -1.3125q0.40625 -0.609375 1.171875 -0.921875q0.78125 -0.328125 1.71875 -0.328125q1.03125 0 1.8125 0.34375q0.796875 0.328125 1.21875 0.984375q0.4375 0.640625 0.46875 1.453125l-1.1875 0.09375q-0.09375 -0.890625 -0.640625 -1.328125q-0.546875 -0.453125 -1.625 -0.453125q-1.109375 0 -1.625 0.40625q-0.515625 0.40625 -0.515625 0.984375q0 0.5 0.359375 0.828125q0.359375 0.328125 1.859375 0.671875q1.5 0.32811737 2.0625 0.5781174q0.8125 0.375 1.1875 0.953125q0.390625 0.578125 0.390625 1.328125q0 0.734375 -0.421875 1.390625q-0.421875 0.65625 -1.21875 1.03125q-0.796875 0.359375 -1.796875 0.359375q-1.265625 0 -2.125 -0.359375q-0.84375 -0.375 -1.328125 -1.109375q-0.484375 -0.75 -0.515625 -1.671875zm13.7803955 0.8125l1.1875 0.140625q-0.28125 1.046875 -1.046875 1.625q-0.75 0.5625 -1.921875 0.5625q-1.484375 0 -2.359375 -0.90625q-0.859375 -0.921875 -0.859375 -2.5625q0 -1.703125 0.875 -2.6406174q0.890625 -0.9375 2.28125 -0.9375q1.359375 0 2.203125 0.921875q0.859375 0.9218674 0.859375 2.5781174q0 0.109375 0 0.3125l-5.03125 0q0.0625 1.109375 0.625 1.703125q0.5625 0.59375 1.40625 0.59375q0.640625 0 1.078125 -0.328125q0.453125 -0.34375 0.703125 -1.0625zm-3.75 -1.84375l3.765625 0q-0.078125 -0.859375 -0.4375 -1.2812424q-0.546875 -0.65625 -1.40625 -0.65625q-0.796875 0 -1.328125 0.53125q-0.53125 0.5156174 -0.59375 1.4062424zm6.5374756 4.015625l0 -6.7343674l1.03125 0l0 1.015625q0.390625 -0.71875 0.71875 -0.9375q0.34375 -0.234375 0.734375 -0.234375q0.578125 0 1.171875 0.359375l-0.390625 1.0625q-0.421875 -0.25 -0.828125 -0.25q-0.375 0 -0.6875 0.234375q-0.296875 0.21875 -0.421875 0.6249924q-0.1875 0.609375 -0.1875 1.328125l0 3.53125l-1.140625 0zm6.3289795 0l-2.5625 -6.7343674l1.203125 0l1.4375 4.0312424q0.234375 0.65625 0.4375 1.359375q0.15625 -0.53125 0.421875 -1.28125l1.5 -4.1093674l1.171875 0l-2.546875 6.7343674l-1.0625 0zm4.7890625 -7.9843674l0 -1.328125l1.140625 0l0 1.328125l-1.140625 0zm0 7.9843674l0 -6.7343674l1.140625 0l0 6.7343674l-1.140625 0zm7.3517456 -2.46875l1.125 0.140625q-0.171875 1.171875 -0.9375 1.828125q-0.765625 0.65625 -1.859375 0.65625q-1.390625 0 -2.234375 -0.90625q-0.828125 -0.90625 -0.828125 -2.59375q0 -1.09375 0.359375 -1.9062424q0.359375 -0.828125 1.09375 -1.234375q0.734375 -0.40625 1.609375 -0.40625q1.09375 0 1.796875 0.5625q0.703125 0.546875 0.890625 1.5624924l-1.109375 0.171875q-0.15625 -0.6718674 -0.5625 -1.0156174q-0.390625 -0.34375 -0.96875 -0.34375q-0.859375 0 -1.40625 0.625q-0.53125 0.6093674 -0.53125 1.9531174q0 1.359375 0.515625 1.984375q0.515625 0.609375 1.359375 0.609375q0.671875 0 1.125 -0.40625q0.453125 -0.421875 0.5625 -1.28125zm6.8828125 0.296875l1.1875 0.140625q-0.28125 1.046875 -1.046875 1.625q-0.75 0.5625 -1.921875 0.5625q-1.484375 0 -2.359375 -0.90625q-0.859375 -0.921875 -0.859375 -2.5625q0 -1.703125 0.875 -2.6406174q0.890625 -0.9375 2.28125 -0.9375q1.359375 0 2.203125 0.921875q0.859375 0.9218674 0.859375 2.5781174q0 0.109375 0 0.3125l-5.03125 0q0.0625 1.109375 0.625 1.703125q0.5625 0.59375 1.40625 0.59375q0.640625 0 1.078125 -0.328125q0.453125 -0.34375 0.703125 -1.0625zm-3.75 -1.84375l3.765625 0q-0.078125 -0.859375 -0.4375 -1.2812424q-0.546875 -0.65625 -1.40625 -0.65625q-0.796875 0 -1.328125 0.53125q-0.53125 0.5156174 -0.59375 1.4062424zm6.0999756 2.0l1.125 -0.171875q0.09375 0.671875 0.53125 1.046875q0.4375 0.359375 1.21875 0.359375q0.78125 0 1.15625 -0.3125q0.390625 -0.328125 0.390625 -0.765625q0 -0.390625 -0.34375 -0.609375q-0.234375 -0.15625 -1.171875 -0.390625q-1.25 -0.3125 -1.734375 -0.546875q-0.484375 -0.234375 -0.734375 -0.640625q-0.25 -0.40625 -0.25 -0.90625q0 -0.45311737 0.203125 -0.8281174q0.203125 -0.390625 0.5625 -0.640625q0.265625 -0.203125 0.71875 -0.328125q0.46875 -0.140625 1.0 -0.140625q0.78125 0 1.375 0.234375q0.609375 0.21875 0.890625 0.609375q0.296875 0.390625 0.40625 1.0468674l-1.125 0.15625q-0.078125 -0.5312424 -0.4375 -0.8124924q-0.359375 -0.296875 -1.03125 -0.296875q-0.78125 0 -1.125 0.265625q-0.34375 0.25 -0.34375 0.6093674q0 0.21875 0.140625 0.390625q0.140625 0.1875 0.4375 0.3125q0.171875 0.0625 1.015625 0.28125q1.21875 0.328125 1.6875 0.53125q0.484375 0.203125 0.75 0.609375q0.28125 0.390625 0.28125 0.96875q0 0.578125 -0.34375 1.078125q-0.328125 0.5 -0.953125 0.78125q-0.625 0.28125 -1.421875 0.28125q-1.3125 0 -2.0 -0.546875q-0.6875 -0.546875 -0.875 -1.625z" fill-rule="nonzero"></path><path fill="#000000" d="m544.9967 141.15219q0.59375 0 1.15625 0.3125q0.5625 0.296875 0.875 0.875q0.328125 0.5625 0.328125 1.171875q0 0.984375 -0.703125 1.6875q-0.6875 0.6875 -1.65625 0.6875q-0.984375 0 -1.6875 -0.6875q-0.6875 -0.703125 -0.6875 -1.6875q0 -0.609375 0.3125 -1.171875q0.328125 -0.578125 0.890625 -0.875q0.578125 -0.3125 1.171875 -0.3125z" fill-rule="nonzero"></path><path fill="#000000" d="m572.605 144.08969l0.984375 -0.078125q0.0625 0.578125 0.3125 0.96875q0.265625 0.375 0.796875 0.609375q0.53125 0.234375 1.203125 0.234375q0.609375 0 1.0625 -0.171875q0.453125 -0.1875 0.671875 -0.484375q0.234375 -0.3125 0.234375 -0.6875q0 -0.375 -0.21875 -0.640625q-0.21875 -0.28125 -0.71875 -0.46875q-0.3125 -0.125 -1.40625 -0.375q-1.078125 -0.265625 -1.515625 -0.5q-0.5625 -0.296875 -0.84375 -0.734375q-0.265625 -0.4375 -0.265625 -0.984375q0 -0.59375 0.328125 -1.109375q0.34375 -0.515625 0.984375 -0.78125q0.65625 -0.28125 1.453125 -0.28125q0.875 0 1.546875 0.296875q0.671875 0.28125 1.03125 0.828125q0.359375 0.546875 0.390625 1.234375l-1.0 0.078125q-0.078125 -0.75 -0.546875 -1.125q-0.46875 -0.390625 -1.375 -0.390625q-0.9375 0 -1.375 0.359375q-0.4375 0.34375 -0.4375 0.828125q0 0.421875 0.3125 0.703125q0.296875 0.265625 1.5625 0.5625q1.28125 0.28125 1.75 0.5q0.6875 0.3125 1.015625 0.796875q0.328125 0.484375 0.328125 1.125q0 0.625 -0.359375 1.1875q-0.359375 0.546875 -1.046875 0.859375q-0.671875 0.3125 -1.515625 0.3125q-1.0625 0 -1.78125 -0.3125q-0.71875 -0.3125 -1.140625 -0.9375q-0.40625 -0.625 -0.421875 -1.421875zm7.420166 2.53125l0 -7.875l1.578125 0l1.859375 5.578125q0.25 0.78125 0.375 1.15625q0.140625 -0.421875 0.421875 -1.25l1.875 -5.484375l1.40625 0l0 7.875l-1.0 0l0 -6.59375l-2.296875 6.59375l-0.9375 0l-2.265625 -6.703125l0 6.703125l-1.015625 0zm10.923584 0l0 -6.9375l-2.59375 0l0 -0.9375l6.234375 0l0 0.9375l-2.609375 0l0 6.9375l-1.03125 0zm4.4936523 0l0 -7.875l2.96875 0q0.796875 0 1.203125 0.078125q0.578125 0.09375 0.96875 0.375q0.390625 0.265625 0.625 0.75q0.25 0.484375 0.25 1.078125q0 1.0 -0.640625 1.703125q-0.640625 0.6875 -2.3125 0.6875l-2.015625 0l0 3.203125l-1.046875 0zm1.046875 -4.125l2.03125 0q1.015625 0 1.4375 -0.375q0.421875 -0.375 0.421875 -1.0625q0 -0.5 -0.25 -0.84375q-0.25 -0.359375 -0.65625 -0.46875q-0.265625 -0.0625 -0.96875 -0.0625l-2.015625 0l0 2.8125zm9.021423 4.125l0 -7.875l2.96875 0q0.796875 0 1.203125 0.078125q0.578125 0.09375 0.96875 0.375q0.390625 0.265625 0.625 0.75q0.25 0.484375 0.25 1.078125q0 1.0 -0.640625 1.703125q-0.640625 0.6875 -2.3125 0.6875l-2.015625 0l0 3.203125l-1.046875 0zm1.046875 -4.125l2.03125 0q1.015625 0 1.4375 -0.375q0.421875 -0.375 0.421875 -1.0625q0 -0.5 -0.25 -0.84375q-0.25 -0.359375 -0.65625 -0.46875q-0.265625 -0.0625 -0.96875 -0.0625l-2.015625 0l0 2.8125zm5.93573 4.125l0 -5.703125l0.859375 0l0 0.859375q0.34375 -0.609375 0.625 -0.796875q0.28125 -0.1875 0.609375 -0.1875q0.5 0 1.0 0.3125l-0.328125 0.890625q-0.359375 -0.203125 -0.71875 -0.203125q-0.3125 0 -0.5625 0.1875q-0.25 0.1875 -0.359375 0.53125q-0.15625 0.515625 -0.15625 1.125l0 2.984375l-0.96875 0zm3.18927 -2.859375q0 -1.578125 0.890625 -2.34375q0.734375 -0.625 1.796875 -0.625q1.171875 0 1.90625 0.765625q0.75 0.765625 0.75 2.125q0 1.109375 -0.328125 1.75q-0.328125 0.625 -0.96875 0.96875q-0.625 0.34375 -1.359375 0.34375q-1.203125 0 -1.953125 -0.765625q-0.734375 -0.765625 -0.734375 -2.21875zm1.0 0q0 1.109375 0.46875 1.65625q0.484375 0.53125 1.21875 0.53125q0.71875 0 1.1875 -0.546875q0.484375 -0.546875 0.484375 -1.671875q0 -1.046875 -0.484375 -1.59375q-0.484375 -0.546875 -1.1875 -0.546875q-0.734375 0 -1.21875 0.546875q-0.46875 0.53125 -0.46875 1.625zm6.8795776 2.859375l-2.171875 -5.703125l1.015625 0l1.234375 3.421875q0.1875 0.546875 0.359375 1.140625q0.125 -0.453125 0.359375 -1.078125l1.265625 -3.484375l1.0 0l-2.15625 5.703125l-0.90625 0zm3.75 -6.765625l0 -1.109375l0.96875 0l0 1.109375l-0.96875 0zm0 6.765625l0 -5.703125l0.96875 0l0 5.703125l-0.96875 0zm6.0549927 0l0 -0.71875q-0.53125 0.84375 -1.59375 0.84375q-0.671875 0 -1.25 -0.375q-0.578125 -0.375 -0.890625 -1.046875q-0.3125 -0.671875 -0.3125 -1.546875q0 -0.859375 0.28125 -1.546875q0.296875 -0.703125 0.859375 -1.0625q0.5625 -0.375 1.265625 -0.375q0.515625 0 0.921875 0.21875q0.40625 0.21875 0.65625 0.5625l0 -2.828125l0.96875 0l0 7.875l-0.90625 0zm-3.046875 -2.84375q0 1.09375 0.453125 1.640625q0.46875 0.53125 1.09375 0.53125q0.640625 0 1.078125 -0.515625q0.4375 -0.515625 0.4375 -1.578125q0 -1.171875 -0.453125 -1.71875q-0.4375 -0.546875 -1.109375 -0.546875q-0.640625 0 -1.078125 0.53125q-0.421875 0.515625 -0.421875 1.65625zm9.176514 1.0l1.0 0.125q-0.234375 0.875 -0.875 1.359375q-0.640625 0.484375 -1.625 0.484375q-1.25 0 -1.984375 -0.765625q-0.734375 -0.765625 -0.734375 -2.15625q0 -1.453125 0.734375 -2.234375q0.75 -0.796875 1.921875 -0.796875q1.15625 0 1.875 0.78125q0.71875 0.765625 0.71875 2.1875q0 0.078125 0 0.25l-4.25 0q0.046875 0.9375 0.515625 1.4375q0.484375 0.5 1.203125 0.5q0.53125 0 0.90625 -0.265625q0.375 -0.28125 0.59375 -0.90625zm-3.171875 -1.5625l3.1875 0q-0.0625 -0.71875 -0.359375 -1.078125q-0.46875 -0.546875 -1.203125 -0.546875q-0.671875 0 -1.125 0.453125q-0.453125 0.4375 -0.5 1.171875zm5.1921387 3.40625l0 -5.703125l0.859375 0l0 0.859375q0.34375 -0.609375 0.625 -0.796875q0.28125 -0.1875 0.609375 -0.1875q0.5 0 1.0 0.3125l-0.328125 0.890625q-0.359375 -0.203125 -0.71875 -0.203125q-0.3125 0 -0.5625 0.1875q-0.25 0.1875 -0.359375 0.53125q-0.15625 0.515625 -0.15625 1.125l0 2.984375l-0.96875 0z" fill-rule="nonzero"></path><path fill="#000000" d="m544.9967 154.15219q0.59375 0 1.15625 0.3125q0.5625 0.296875 0.875 0.875q0.328125 0.5625 0.328125 1.171875q0 0.984375 -0.703125 1.6875q-0.6875 0.6875 -1.65625 0.6875q-0.984375 0 -1.6875 -0.6875q-0.6875 -0.703125 -0.6875 -1.6875q0 -0.609375 0.3125 -1.171875q0.328125 -0.578125 0.890625 -0.875q0.578125 -0.3125 1.171875 -0.3125z" fill-rule="nonzero"></path><path fill="#000000" d="m572.9175 159.62094l0 -7.875l2.953125 0q0.890625 0 1.4375 0.25q0.546875 0.234375 0.859375 0.734375q0.3125 0.484375 0.3125 1.03125q0 0.5 -0.28125 0.953125q-0.265625 0.4375 -0.828125 0.71875q0.71875 0.203125 1.09375 0.71875q0.390625 0.5 0.390625 1.1875q0 0.546875 -0.234375 1.03125q-0.234375 0.46875 -0.578125 0.734375q-0.34375 0.25 -0.859375 0.390625q-0.515625 0.125 -1.265625 0.125l-3.0 0zm1.03125 -4.5625l1.703125 0q0.703125 0 1.0 -0.09375q0.390625 -0.125 0.59375 -0.390625q0.203125 -0.28125 0.203125 -0.6875q0 -0.390625 -0.1875 -0.6875q-0.1875 -0.296875 -0.546875 -0.40625q-0.34375 -0.109375 -1.1875 -0.109375l-1.578125 0l0 2.375zm0 3.640625l1.96875 0q0.5 0 0.703125 -0.046875q0.359375 -0.0625 0.59375 -0.203125q0.25 -0.15625 0.40625 -0.4375q0.15625 -0.296875 0.15625 -0.671875q0 -0.4375 -0.234375 -0.765625q-0.21875 -0.328125 -0.625 -0.453125q-0.390625 -0.140625 -1.140625 -0.140625l-1.828125 0l0 2.71875zm9.717041 0.21875q-0.546875 0.453125 -1.046875 0.640625q-0.484375 0.1875 -1.0625 0.1875q-0.9375 0 -1.453125 -0.453125q-0.5 -0.46875 -0.5 -1.171875q0 -0.421875 0.1875 -0.765625q0.203125 -0.34375 0.5 -0.546875q0.3125 -0.21875 0.703125 -0.328125q0.28125 -0.078125 0.859375 -0.140625q1.171875 -0.140625 1.71875 -0.34375q0.015625 -0.1875 0.015625 -0.25q0 -0.59375 -0.28125 -0.828125q-0.359375 -0.328125 -1.09375 -0.328125q-0.6875 0 -1.015625 0.234375q-0.3125 0.234375 -0.46875 0.84375l-0.953125 -0.125q0.125 -0.609375 0.421875 -0.984375q0.296875 -0.375 0.859375 -0.5625q0.5625 -0.203125 1.296875 -0.203125q0.734375 0 1.1875 0.171875q0.453125 0.171875 0.65625 0.4375q0.21875 0.25 0.3125 0.640625q0.046875 0.25 0.046875 0.90625l0 1.28125q0 1.34375 0.0625 1.703125q0.0625 0.359375 0.25 0.6875l-1.015625 0q-0.15625 -0.296875 -0.1875 -0.703125zm-0.09375 -2.15625q-0.515625 0.21875 -1.578125 0.359375q-0.59375 0.09375 -0.84375 0.203125q-0.234375 0.09375 -0.375 0.3125q-0.140625 0.203125 -0.140625 0.453125q0 0.390625 0.296875 0.65625q0.296875 0.25 0.859375 0.25q0.5625 0 0.984375 -0.25q0.4375 -0.25 0.65625 -0.671875q0.140625 -0.328125 0.140625 -0.96875l0 -0.34375zm2.2858276 2.859375l0 -5.703125l0.875 0l0 0.8125q0.625 -0.9375 1.8125 -0.9375q0.515625 0 0.953125 0.1875q0.4375 0.171875 0.640625 0.484375q0.21875 0.296875 0.3125 0.703125q0.046875 0.28125 0.046875 0.953125l0 3.5l-0.96875 0l0 -3.46875q0 -0.59375 -0.109375 -0.875q-0.109375 -0.296875 -0.40625 -0.46875q-0.28125 -0.1875 -0.671875 -0.1875q-0.609375 0 -1.0625 0.390625q-0.453125 0.390625 -0.453125 1.5l0 3.109375l-0.96875 0zm5.9421387 0l0 -7.875l0.96875 0l0 4.484375l2.28125 -2.3125l1.25 0l-2.171875 2.109375l2.390625 3.59375l-1.1875 0l-1.890625 -2.921875l-0.671875 0.65625l0 2.265625l-0.96875 0zm5.265625 -6.828125l0 -1.125l1.03125 0l0 0.890625q0 0.71875 -0.171875 1.03125q-0.21875 0.4375 -0.71875 0.65625l-0.234375 -0.390625q0.296875 -0.109375 0.4375 -0.359375q0.140625 -0.265625 0.15625 -0.703125l-0.5 0zm2.0393677 5.125l0.953125 -0.15625q0.078125 0.578125 0.4375 0.890625q0.375 0.296875 1.03125 0.296875q0.671875 0 0.984375 -0.265625q0.328125 -0.265625 0.328125 -0.640625q0 -0.328125 -0.28125 -0.515625q-0.203125 -0.125 -0.984375 -0.328125q-1.0625 -0.265625 -1.484375 -0.453125q-0.40625 -0.203125 -0.625 -0.546875q-0.203125 -0.34375 -0.203125 -0.765625q0 -0.390625 0.171875 -0.703125q0.171875 -0.328125 0.484375 -0.546875q0.21875 -0.171875 0.609375 -0.28125q0.390625 -0.109375 0.828125 -0.109375q0.671875 0 1.171875 0.1875q0.515625 0.1875 0.75 0.53125q0.25 0.328125 0.34375 0.875l-0.9375 0.125q-0.078125 -0.4375 -0.390625 -0.671875q-0.296875 -0.25 -0.859375 -0.25q-0.671875 0 -0.953125 0.21875q-0.28125 0.21875 -0.28125 0.515625q0 0.1875 0.109375 0.328125q0.125 0.15625 0.375 0.265625q0.140625 0.046875 0.859375 0.25q1.015625 0.265625 1.421875 0.4375q0.40625 0.171875 0.640625 0.515625q0.234375 0.328125 0.234375 0.828125q0 0.484375 -0.28125 0.90625q-0.28125 0.421875 -0.8125 0.65625q-0.53125 0.234375 -1.203125 0.234375q-1.109375 0 -1.703125 -0.453125q-0.578125 -0.46875 -0.734375 -1.375z" fill-rule="nonzero"></path><path fill="#000000" d="m544.9967 167.15219q0.59375 0 1.15625 0.3125q0.5625 0.296875 0.875 0.875q0.328125 0.5625 0.328125 1.171875q0 0.984375 -0.703125 1.6875q-0.6875 0.6875 -1.65625 0.6875q-0.984375 0 -1.6875 -0.6875q-0.6875 -0.703125 -0.6875 -1.6875q0 -0.609375 0.3125 -1.171875q0.328125 -0.578125 0.890625 -0.875q0.578125 -0.3125 1.171875 -0.3125z" fill-rule="nonzero"></path><path fill="#000000" d="m572.98 172.62094l0 -7.875l5.6875 0l0 0.9375l-4.65625 0l0 2.40625l4.359375 0l0 0.921875l-4.359375 0l0 2.6875l4.84375 0l0 0.921875l-5.875 0zm9.076416 -0.859375l0.125 0.84375q-0.40625 0.09375 -0.71875 0.09375q-0.53125 0 -0.828125 -0.171875q-0.28125 -0.171875 -0.40625 -0.4375q-0.109375 -0.265625 -0.109375 -1.140625l0 -3.28125l-0.71875 0l0 -0.75l0.71875 0l0 -1.40625l0.953125 -0.59375l0 2.0l0.984375 0l0 0.75l-0.984375 0l0 3.34375q0 0.40625 0.046875 0.53125q0.0625 0.109375 0.171875 0.1875q0.125 0.0625 0.328125 0.0625q0.171875 0 0.4375 -0.03125zm4.5700073 -1.234375l0.9375 0.125q-0.140625 0.984375 -0.796875 1.546875q-0.640625 0.546875 -1.5625 0.546875q-1.171875 0 -1.890625 -0.765625q-0.703125 -0.765625 -0.703125 -2.1875q0 -0.921875 0.296875 -1.609375q0.3125 -0.703125 0.9375 -1.046875q0.625 -0.34375 1.359375 -0.34375q0.921875 0 1.515625 0.46875q0.59375 0.46875 0.765625 1.328125l-0.953125 0.140625q-0.125 -0.5625 -0.46875 -0.84375q-0.34375 -0.296875 -0.828125 -0.296875q-0.71875 0 -1.1875 0.53125q-0.453125 0.515625 -0.453125 1.640625q0 1.15625 0.4375 1.671875q0.4375 0.515625 1.15625 0.515625q0.5625 0 0.9375 -0.34375q0.390625 -0.34375 0.5 -1.078125zm1.875 2.09375l0 -1.09375l1.09375 0l0 1.09375l-1.09375 0zm2.9606323 0l0 -1.09375l1.09375 0l0 1.09375l-1.09375 0z" fill-rule="nonzero"></path><path fill="#000000" fill-opacity="0.0" d="m614.32416 238.44131l1.1115112 -55.74147" fill-rule="nonzero"></path><path stroke="#000000" stroke-width="2.0" stroke-linejoin="round" stroke-linecap="butt" d="m614.32416 238.44131l0.8722534 -43.74385" fill-rule="evenodd"></path><path fill="#000000" stroke="#000000" stroke-width="2.0" stroke-linecap="butt" d="m618.49927 194.76332l-3.1218872 -9.140259l-3.4837646 9.00853z" fill-rule="evenodd"></path><path fill="#000000" fill-opacity="0.0" d="m614.32416 324.0791l0 27.015747" fill-rule="nonzero"></path><path stroke="#000000" stroke-width="2.0" stroke-linejoin="round" stroke-linecap="butt" d="m614.32416 324.0791l0 27.015747" fill-rule="nonzero"></path></g></svg>

